<svg class="animated" id="freepik_stories-spooky-self-makeup" xmlns="http://www.w3.org/2000/svg" viewBox="0 0 500 500" version="1.1" xmlns:xlink="http://www.w3.org/1999/xlink" xmlns:svgjs="http://svgjs.com/svgjs"><style>svg#freepik_stories-spooky-self-makeup:not(.animated) .animable {opacity: 0;}svg#freepik_stories-spooky-self-makeup.animated #freepik--background-complete--inject-100 {animation: 6s Infinite  linear floating;animation-delay: 0s;}svg#freepik_stories-spooky-self-makeup.animated #freepik--Plant--inject-100 {animation: 1s 1 forwards cubic-bezier(.36,-0.01,.5,1.38) slideDown;animation-delay: 0s;}svg#freepik_stories-spooky-self-makeup.animated #freepik--Character--inject-100 {animation: 3.0s 1 forwards cubic-bezier(.36,-0.01,.5,1.38) slideRight,3s Infinite  linear floating;animation-delay: 0s,3s;}svg#freepik_stories-spooky-self-makeup.animated #freepik--Mirror--inject-100 {animation: 3.0s 1 forwards cubic-bezier(.36,-0.01,.5,1.38) lightSpeedLeft,6s Infinite  linear heartbeat;animation-delay: 0s,6s;}svg#freepik_stories-spooky-self-makeup.animated #freepik--Desk--inject-100 {animation: 1s 1 forwards cubic-bezier(.36,-0.01,.5,1.38) lightSpeedLeft;animation-delay: 0s;}            @keyframes floating {                0% {                    opacity: 1;                    transform: translateY(0px);                }                50% {                    transform: translateY(-10px);                }                100% {                    opacity: 1;                    transform: translateY(0px);                }            }                    @keyframes slideDown {                0% {                    opacity: 0;                    transform: translateY(-30px);                }                100% {                    opacity: 1;                    transform: translateY(0);                }            }                    @keyframes slideRight {                0% {                    opacity: 0;                    transform: translateX(30px);                }                100% {                    opacity: 1;                    transform: translateX(0);                }            }                    @keyframes lightSpeedLeft {              from {                transform: translate3d(-50%, 0, 0) skewX(20deg);                opacity: 0;              }              60% {                transform: skewX(-10deg);                opacity: 1;              }              80% {                transform: skewX(2deg);              }              to {                opacity: 1;                transform: translate3d(0, 0, 0);              }            }                    @keyframes heartbeat {                0% {                    transform: scale(1);                }                10% {                    transform: scale(1.1);                }                30% {                    transform: scale(1);                }                40% {                    transform: scale(1);                }                50% {                    transform: scale(1.1);                }                60% {                    transform: scale(1);                }                100% {                    transform: scale(1);                }            }        .animator-hidden { display: none; }</style><g id="freepik--background-complete--inject-100" class="animable" style="transform-origin: 240.8px 258.65px;"><rect x="66.29" y="48.13" width="94.12" height="98.11" style="fill: rgb(224, 224, 224); transform-origin: 113.35px 97.185px;" id="elsgtzfs1k1aq" class="animable"></rect><rect x="59.92" y="48.13" width="94.12" height="98.11" style="fill: rgb(235, 235, 235); transform-origin: 106.98px 97.185px;" id="eliiny66mkagh" class="animable"></rect><rect x="72.57" y="61.31" width="68.82" height="71.74" style="fill: rgb(250, 250, 250); transform-origin: 106.98px 97.18px;" id="elotvw0gx2x2q" class="animable"></rect><path d="M72.57,133.53a13.91,13.91,0,0,1-1.72,1.95c-1.1,1.15-2.65,2.72-4.38,4.42s-3.32,3.23-4.49,4.32a13.29,13.29,0,0,1-2,1.68,13.34,13.34,0,0,1,1.71-2c1.11-1.15,2.66-2.72,4.4-4.43s3.32-3.24,4.49-4.32A12.31,12.31,0,0,1,72.57,133.53Z" style="fill: rgb(224, 224, 224); transform-origin: 66.275px 139.715px;" id="el6pwhf1w96i9" class="animable"></path><path d="M141.39,133.35a13.91,13.91,0,0,1,2,1.72c1.15,1.11,2.72,2.65,4.42,4.38s3.23,3.32,4.32,4.49a13.29,13.29,0,0,1,1.68,2,12.75,12.75,0,0,1-1.95-1.71c-1.15-1.11-2.72-2.66-4.43-4.4s-3.24-3.32-4.32-4.49A11.66,11.66,0,0,1,141.39,133.35Z" style="fill: rgb(224, 224, 224); transform-origin: 147.6px 139.645px;" id="elf4r82rmkv5" class="animable"></path><path d="M141.2,61.51a12,12,0,0,1,1.72-1.95c1.1-1.16,2.65-2.72,4.38-4.43s3.32-3.23,4.49-4.31a12,12,0,0,1,2-1.68A12.81,12.81,0,0,1,152,51.08c-1.1,1.15-2.65,2.72-4.39,4.43s-3.33,3.24-4.49,4.32A13.42,13.42,0,0,1,141.2,61.51Z" style="fill: rgb(224, 224, 224); transform-origin: 147.495px 55.325px;" id="eliibsqv5xne" class="animable"></path><path d="M72.38,61.68A13.11,13.11,0,0,1,70.43,60c-1.15-1.1-2.72-2.65-4.42-4.38s-3.23-3.32-4.32-4.49a13.59,13.59,0,0,1-1.68-2,11.94,11.94,0,0,1,2,1.71c1.15,1.1,2.72,2.65,4.43,4.39s3.23,3.33,4.32,4.49A12.87,12.87,0,0,1,72.38,61.68Z" style="fill: rgb(224, 224, 224); transform-origin: 66.195px 55.405px;" id="el01rxz7bxf2ua" class="animable"></path><path d="M141.2,133.05s0-.12,0-.35,0-.57,0-1c0-.89,0-2.18,0-3.86,0-3.4,0-8.34-.06-14.62,0-12.56-.07-30.47-.12-51.91l.23.23-68.62,0h0l.26-.26c0,26.34,0,51,0,71.74l-.22-.22,49.7.11,14,.06,3.69,0h1l-.93,0-3.64,0-13.91.06-49.84.11h-.22v-.22c0-20.77,0-45.4,0-71.74v-.25h.27l68.62,0h.22v.22c0,21.5-.08,39.46-.11,52.05,0,6.26-.05,11.19-.06,14.57,0,1.66,0,2.94,0,3.82,0,.42,0,.75,0,1S141.2,133.05,141.2,133.05Z" style="fill: rgb(224, 224, 224); transform-origin: 107.075px 97.035px;" id="el6oz6kt49ko" class="animable"></path><path d="M92.08,90.25h3.7s2.75-9.51,9.94-7.93,7.92,7.93,7.39,11.1a1.11,1.11,0,0,0,1.06,1.48c1.48.21,12.58,0,12.58,0s3.17,18.81-17.33,17.23S96.1,96.91,97.05,95.53,92.08,90.25,92.08,90.25Z" style="fill: rgb(235, 235, 235); transform-origin: 109.503px 97.1836px;" id="el5p1m4ipgr8e" class="animable"></path><path d="M116.6,100.49a10.43,10.43,0,0,1-7.43,1.07,8.5,8.5,0,0,0-4.06-.19,3.6,3.6,0,0,0-2.39,3.7l.22.54a7.37,7.37,0,0,0,13.66-5.12Z" style="fill: rgb(224, 224, 224); transform-origin: 109.738px 104.961px;" id="elpzc55q27v6" class="animable"></path><path d="M100.66,90a.6.6,0,0,1-.6.6.6.6,0,0,1-.6-.6.6.6,0,0,1,.6-.6A.59.59,0,0,1,100.66,90Z" style="fill: rgb(224, 224, 224); transform-origin: 100.06px 90px;" id="el7nib1qsc9bp" class="animable"></path><rect x="23.2" y="408.14" width="122.72" height="61.03" style="fill: rgb(245, 245, 245); transform-origin: 84.56px 438.655px;" id="elkw6fau9o1tc" class="animable"></rect><rect x="17.67" y="403.47" width="133.78" height="9.45" style="fill: rgb(235, 235, 235); transform-origin: 84.56px 408.195px;" id="el8mpywxt415o" class="animable"></rect><rect x="23.2" y="343.01" width="122.72" height="61.03" style="fill: rgb(245, 245, 245); transform-origin: 84.56px 373.525px;" id="elsliqk13xy08" class="animable"></rect><rect x="17.67" y="338.34" width="133.78" height="9.45" style="fill: rgb(235, 235, 235); transform-origin: 84.56px 343.065px;" id="elbhsfdn3h81" class="animable"></rect><path d="M77.6,403.1c-.14,0-.26-12.32-.26-27.52s.12-27.51.26-27.51.26,12.31.26,27.51S77.75,403.1,77.6,403.1Z" style="fill: rgb(235, 235, 235); transform-origin: 77.6px 375.585px;" id="elwlgekke1nve" class="animable"></path><path d="M77.6,467.33c-.14,0-.26-12.32-.26-27.52s.12-27.51.26-27.51.26,12.31.26,27.51S77.75,467.33,77.6,467.33Z" style="fill: rgb(235, 235, 235); transform-origin: 77.6px 439.815px;" id="elr5av1jrtlpi" class="animable"></path><rect x="304.56" y="64.53" width="159.37" height="231" style="fill: rgb(224, 224, 224); transform-origin: 384.245px 180.03px;" id="elrd2a9un4vvo" class="animable"></rect><rect x="296.57" y="64.53" width="159.37" height="231" style="fill: rgb(245, 245, 245); transform-origin: 376.255px 180.03px;" id="el6ms7ve6mjjc" class="animable"></rect><rect x="316.37" y="89.55" width="119.77" height="180.96" style="fill: rgb(255, 255, 255); transform-origin: 376.255px 180.03px;" id="el6nphxv4d0nn" class="animable"></rect><path d="M436.14,270.51s0-.3,0-.88,0-1.45,0-2.57c0-2.27,0-5.6-.05-9.92,0-8.68-.06-21.31-.11-37.28-.05-31.91-.11-77.1-.19-130.31l.39.4L316.39,90h0l.44-.43c0,68.27-.07,131.21-.09,181l-.35-.34,87.18.18,24.08.09,6.33,0,2.18,0s-.7,0-2.11,0l-6.26,0-24,.09-87.39.18H316v-.35c0-49.75-.06-112.69-.09-181v-.43h.45l119.75,0h.4v.4c-.08,53.32-.15,98.6-.2,130.57,0,15.93-.08,28.54-.1,37.19,0,4.29,0,7.59-.05,9.84,0,1.1,0,1.94,0,2.53S436.14,270.51,436.14,270.51Z" style="fill: rgb(224, 224, 224); transform-origin: 376.21px 179.88px;" id="elpghezpuf038" class="animable"></path><path d="M456.39,64.53a28.35,28.35,0,0,1-2.84,4.13c-1.85,2.47-4.48,5.84-7.48,9.48s-5.8,6.87-7.87,9.16a27.74,27.74,0,0,1-3.51,3.58,30.15,30.15,0,0,1,3-4l7.67-9.31,7.67-9.31A30.47,30.47,0,0,1,456.39,64.53Z" style="fill: rgb(224, 224, 224); transform-origin: 445.54px 77.705px;" id="elibnvgtir6u" class="animable"></path><path d="M436.75,269.93a148.56,148.56,0,0,0,20.89,26.13" style="fill: rgb(255, 255, 255); transform-origin: 447.195px 282.995px;" id="elf35f7kxzyxt" class="animable"></path><path d="M457.64,296.06a23.94,23.94,0,0,1-3.64-3.32,114.26,114.26,0,0,1-7.88-8.88,115.46,115.46,0,0,1-6.94-9.65,24.41,24.41,0,0,1-2.43-4.28,32.32,32.32,0,0,1,2.94,3.94c1.76,2.46,4.23,5.84,7.11,9.44s5.63,6.76,7.65,9A32.24,32.24,0,0,1,457.64,296.06Z" style="fill: rgb(224, 224, 224); transform-origin: 447.195px 282.995px;" id="elxf84lceqax" class="animable"></path><path d="M296.55,295.35q10.44-12.87,20.87-25.76" style="fill: rgb(255, 255, 255); transform-origin: 306.985px 282.47px;" id="elxuoanwri79d" class="animable"></path><path d="M317.42,269.59c.19.16-4.33,6-10.1,13.15s-10.59,12.76-10.77,12.61,4.33-6,10.1-13.15S317.24,269.44,317.42,269.59Z" style="fill: rgb(224, 224, 224); transform-origin: 306.985px 282.47px;" id="elkb2rjnyou1j" class="animable"></path><path d="M296.57,64.53c.19-.15,4.73,5.28,10.13,12.11s9.64,12.51,9.46,12.65S311.43,84,306,77.18,296.38,64.68,296.57,64.53Z" style="fill: rgb(224, 224, 224); transform-origin: 306.365px 76.9098px;" id="elj3ul12k227i" class="animable"></path><path d="M316.79,116.8c8.31-9,24-13,35.24-8.25a30.78,30.78,0,0,1,18.24,29.19c11.41,1.89,20.19,12.17,22.84,23.43s.07,23.18-4.46,33.82c-1.85,4.33-4,8.59-4.9,13.23s-.19,9.86,3.08,13.26c3.89,4.05,10.12,4.43,15.32,6.55,7.61,3.11,13.05,10.16,16.08,17.8s3.95,15.93,4.84,24.1H317.42Z" style="fill: rgb(235, 235, 235); transform-origin: 369.93px 188.232px;" id="eldr28qlzh9o" class="animable"></path><path d="M322.88,247.32c-.12-.1,23.1-26.1,51.85-58.06s52.16-57.79,52.28-57.69-23.11,26.09-51.87,58.06S323,247.42,322.88,247.32Z" style="fill: rgb(250, 250, 250); transform-origin: 374.945px 189.445px;" id="el1n315fgsi0w" class="animable"></path><path d="M415.94,125.39c.12.1-14.51,16.39-32.66,36.38s-33,36.12-33.07,36,14.51-16.39,32.66-36.39S415.83,125.29,415.94,125.39Z" style="fill: rgb(250, 250, 250); transform-origin: 383.075px 161.58px;" id="elvnoxxg5o5pd" class="animable"></path><path d="M409.25,174.6a4.33,4.33,0,0,1-.56.62L407,176.91l-6.15,6.19c-5.19,5.23-12.29,12.53-19.94,20.78s-14.39,15.88-19.22,21.45l-5.7,6.6-1.57,1.79a4.08,4.08,0,0,1-.57.6,6.61,6.61,0,0,1,.49-.67l1.48-1.85c1.29-1.61,3.2-3.91,5.58-6.73,4.75-5.63,11.46-13.31,19.11-21.57s14.8-15.51,20.06-20.68c2.63-2.58,4.78-4.65,6.29-6.06l1.73-1.62A5.75,5.75,0,0,1,409.25,174.6Z" style="fill: rgb(250, 250, 250); transform-origin: 381.55px 204.46px;" id="elcl95y25qt6" class="animable"></path></g><g id="freepik--Plant--inject-100" class="animable" style="transform-origin: 418.57px 413.51px;"><polygon points="391.37 424.11 398.12 468.49 437.36 468.49 446.47 424.75 391.37 424.11" style="fill: rgb(0, 255, 136); transform-origin: 418.92px 446.3px;" id="el9ly0vicpcnf" class="animable"></polygon><path d="M441,452.55c0,.13-10.05.23-22.45.23s-22.46-.1-22.46-.23,10.05-.23,22.46-.23S441,452.42,441,452.55Z" style="fill: rgb(250, 250, 250); transform-origin: 418.545px 452.55px;" id="elh9sps2nf6dq" class="animable"></path><path d="M441.13,450.37c0,.12-10.12.23-22.6.23s-22.61-.11-22.61-.23,10.12-.23,22.61-.23S441.13,450.24,441.13,450.37Z" style="fill: rgb(250, 250, 250); transform-origin: 418.525px 450.37px;" id="elgu4fn7id25c" class="animable"></path><path d="M441.05,447.9c0,.13-10.12.23-22.6.23s-22.61-.1-22.61-.23,10.12-.23,22.61-.23S441.05,447.77,441.05,447.9Z" style="fill: rgb(250, 250, 250); transform-origin: 418.445px 447.9px;" id="elb8026xvrmee" class="animable"></path><path d="M402.63,466a35.37,35.37,0,0,1-1.2-5.59,35,35,0,0,1-.75-5.67,36.76,36.76,0,0,1,1.2,5.59A34.85,34.85,0,0,1,402.63,466Z" style="fill: rgb(250, 250, 250); transform-origin: 401.655px 460.37px;" id="elsqoptkm4kxb" class="animable"></path><path d="M405.3,465.48a124.43,124.43,0,0,1-.74-10.92,44.14,44.14,0,0,1,.74,10.92Z" style="fill: rgb(250, 250, 250); transform-origin: 404.965px 460.02px;" id="els2bigsj5s2o" class="animable"></path><path d="M410.16,465.48a28.16,28.16,0,0,1-1-5.59,27.5,27.5,0,0,1-.3-5.67,49.36,49.36,0,0,1,.76,5.62A48.55,48.55,0,0,1,410.16,465.48Z" style="fill: rgb(250, 250, 250); transform-origin: 409.492px 459.85px;" id="elj8wry6e0ym" class="animable"></path><path d="M413.58,465.72A28.29,28.29,0,0,1,413,460a27.92,27.92,0,0,1,.17-5.71,50,50,0,0,1,.29,5.69A48.38,48.38,0,0,1,413.58,465.72Z" style="fill: rgb(250, 250, 250); transform-origin: 413.271px 460.005px;" id="eli5to9w45npr" class="animable"></path><path d="M419.62,465.48a32.79,32.79,0,0,1-.41-5.39,31.35,31.35,0,0,1,.05-5.4,63.45,63.45,0,0,1,.36,10.79Z" style="fill: rgb(250, 250, 250); transform-origin: 419.411px 460.085px;" id="elootjqszr53a" class="animable"></path><path d="M424,465.72a69.17,69.17,0,0,1,.09-11.15,66.26,66.26,0,0,1-.09,11.15Z" style="fill: rgb(250, 250, 250); transform-origin: 424.05px 460.145px;" id="elfeq641w61r9" class="animable"></path><path d="M428.18,465.13a36.46,36.46,0,0,1,.33-5.83,37.49,37.49,0,0,1,.8-5.79,38.85,38.85,0,0,1-.34,5.83A36.82,36.82,0,0,1,428.18,465.13Z" style="fill: rgb(250, 250, 250); transform-origin: 428.743px 459.32px;" id="elnho7f7a4si8" class="animable"></path><path d="M433.52,464.54a19.86,19.86,0,0,1,.66-5,19.42,19.42,0,0,1,1.46-4.79,45.8,45.8,0,0,1-1,4.88A44.39,44.39,0,0,1,433.52,464.54Z" style="fill: rgb(250, 250, 250); transform-origin: 434.58px 459.645px;" id="elxzv47bx6czm" class="animable"></path><path d="M386.87,415.32v8.3a3.26,3.26,0,0,0,3.27,3.27H447a3.26,3.26,0,0,0,3.27-3.27v-8.3Z" style="fill: rgb(0, 255, 136); transform-origin: 418.57px 421.105px;" id="elmxr07q137p" class="animable"></path><g id="eltsprx4szei9"><g style="opacity: 0.4; transform-origin: 418.905px 430.08px;" class="animable"><polygon points="391.79 426.89 392.26 429.53 444.69 433.27 446.02 426.89 391.79 426.89" id="el2umkahci015" class="animable" style="transform-origin: 418.905px 430.08px;"></polygon></g></g><path d="M407.48,415.29c-8.35-4.84-12.82-16.1-13.15-25.32s3.5-18.83,11.06-24.11c8-5.57,19.3-5.47,27.48-.23s13,15.13,12.6,24.83A32.94,32.94,0,0,1,432,415.2" style="fill: rgb(69, 90, 100); transform-origin: 419.902px 388.491px;" id="el6q56xi7h0va" class="animable"></path><path d="M420.8,416.18a10.81,10.81,0,0,1-.15-2.11c0-1.5-.1-3.43-.17-5.75-.12-4.85-.31-11.55-.64-18.95s-.72-14.09-1-18.94c-.14-2.3-.26-4.23-.35-5.74a11.39,11.39,0,0,1,0-2.11,10.69,10.69,0,0,1,.34,2.09c.16,1.35.37,3.3.59,5.72.44,4.84.93,11.54,1.26,18.95s.42,14.12.41,19c0,2.43,0,4.39-.09,5.75A10.81,10.81,0,0,1,420.8,416.18Z" style="fill: rgb(255, 255, 255); transform-origin: 419.766px 389.38px;" id="ela4a0ru3sx1v" class="animable"></path><path d="M396.8,387.89c0,.21-1.35.28-3,.15s-2.93-.42-2.91-.64,1.35-.28,3-.14S396.81,387.67,396.8,387.89Z" style="fill: rgb(38, 50, 56); transform-origin: 393.845px 387.645px;" id="ellr79m8trv6p" class="animable"></path><path d="M397.25,379.62c-.09.2-1.23-.12-2.56-.71s-2.34-1.23-2.25-1.43,1.24.12,2.56.71S397.34,379.42,397.25,379.62Z" style="fill: rgb(38, 50, 56); transform-origin: 394.845px 378.55px;" id="elytj45lahxwb" class="animable"></path><path d="M401.51,373.48c-.11.18-1.41-.43-2.75-1.54s-2.18-2.27-2-2.41,1.23.73,2.53,1.8S401.63,373.29,401.51,373.48Z" style="fill: rgb(38, 50, 56); transform-origin: 399.128px 371.513px;" id="elmywigvzd5y" class="animable"></path><path d="M405.79,367.69c-.2.09-.82-.88-1.39-2.16s-.86-2.39-.66-2.48.81.88,1.38,2.16S406,367.6,405.79,367.69Z" style="fill: rgb(38, 50, 56); transform-origin: 404.766px 365.37px;" id="elotzzk9s2oml" class="animable"></path><path d="M412.5,363.58c-.19.09-.86-.94-1.3-2.37s-.48-2.65-.27-2.68.59,1.08,1,2.45S412.7,363.49,412.5,363.58Z" style="fill: rgb(38, 50, 56); transform-origin: 411.682px 361.057px;" id="eld7i1iiyqlk5" class="animable"></path><path d="M423.7,359c.21.07.08.95-.28,2s-.81,1.78-1,1.7-.08-.95.28-2S423.5,358.88,423.7,359Z" style="fill: rgb(38, 50, 56); transform-origin: 423.064px 360.847px;" id="elvkvferwptpr" class="animable"></path><path d="M432,362.51c.15.16-.38.89-1.19,1.64s-1.57,1.22-1.72,1.06.39-.89,1.19-1.64S431.86,362.36,432,362.51Z" style="fill: rgb(38, 50, 56); transform-origin: 430.545px 363.861px;" id="elh27x6caf31g" class="animable"></path><path d="M439.33,367.24c.12.18-.53.83-1.46,1.45s-1.76,1-1.89.81.53-.83,1.46-1.45S439.21,367.06,439.33,367.24Z" style="fill: rgb(38, 50, 56); transform-origin: 437.654px 368.372px;" id="ellbwfh1xth6l" class="animable"></path><path d="M444.52,374.28c.09.2-.94.83-2.29,1.4s-2.51.88-2.59.68.94-.82,2.29-1.4S444.44,374.08,444.52,374.28Z" style="fill: rgb(38, 50, 56); transform-origin: 442.081px 375.319px;" id="el70bh71xv8fe" class="animable"></path><path d="M446.57,382c0,.22-1,.52-2.33.69s-2.4.12-2.43-.1,1-.52,2.33-.68S446.54,381.75,446.57,382Z" style="fill: rgb(38, 50, 56); transform-origin: 444.19px 382.296px;" id="el28vqcxg2toz" class="animable"></path><path d="M447.63,391.42c-.09.2-1.2-.09-2.48-.65s-2.25-1.17-2.17-1.37,1.2.09,2.48.65S447.72,391.22,447.63,391.42Z" style="fill: rgb(38, 50, 56); transform-origin: 445.306px 390.41px;" id="elj7or02fjdi" class="animable"></path><path d="M446.69,399.53c-.07.2-1.47-.13-2.94-1.1s-2.34-2.11-2.18-2.25,1.22.69,2.61,1.6S446.77,399.32,446.69,399.53Z" style="fill: rgb(38, 50, 56); transform-origin: 444.122px 397.875px;" id="el78j1d2n56td" class="animable"></path><path d="M442.47,406.92c-.13.17-1.25-.49-2.32-1.65s-1.65-2.32-1.47-2.43,1,.8,2,1.9S442.61,406.75,442.47,406.92Z" style="fill: rgb(38, 50, 56); transform-origin: 440.566px 404.889px;" id="elgyvnhpyp6ol" class="animable"></path><path d="M402.35,407.79c.1.19-1.07,1-2.62,1.8s-2.88,1.31-3,1.11,1.07-1,2.62-1.8S402.25,407.6,402.35,407.79Z" style="fill: rgb(38, 50, 56); transform-origin: 399.539px 409.247px;" id="elcjr5k1mxlo6" class="animable"></path><path d="M398.69,401.11c.09.19-.85.81-2.1,1.38s-2.34.86-2.43.67.85-.82,2.1-1.38S398.6,400.91,398.69,401.11Z" style="fill: rgb(38, 50, 56); transform-origin: 396.425px 402.134px;" id="elppmcbo1l4k" class="animable"></path><path d="M396,395.19c0,.21-1.12.55-2.58.76s-2.67.2-2.7,0,1.13-.56,2.59-.76S396,395,396,395.19Z" style="fill: rgb(38, 50, 56); transform-origin: 393.36px 395.574px;" id="elcbn30yx7jef" class="animable"></path><path d="M404.83,391.93c.06.2-1.07.73-2.57.89s-2.73-.09-2.71-.3,1.19-.31,2.62-.47S404.77,391.71,404.83,391.93Z" style="fill: rgb(38, 50, 56); transform-origin: 402.191px 392.349px;" id="el9lpuh3evele" class="animable"></path><path d="M412.17,384.62c.06.21-.84.66-2.05.78s-2.18-.15-2.16-.36,1-.31,2.08-.42S412.11,384.41,412.17,384.62Z" style="fill: rgb(38, 50, 56); transform-origin: 410.066px 384.963px;" id="elpwewvca2ii" class="animable"></path><path d="M413.57,378.77c-.07.21-1,.06-2.17-.33s-2-.88-1.92-1.08,1-.05,2.17.34S413.64,378.57,413.57,378.77Z" style="fill: rgb(38, 50, 56); transform-origin: 411.524px 378.068px;" id="elwpfxbf8i3z9" class="animable"></path><path d="M416.26,372.86c-.15.15-.82-.29-1.29-1.12s-.53-1.63-.32-1.69.57.56,1,1.3S416.42,372.7,416.26,372.86Z" style="fill: rgb(38, 50, 56); transform-origin: 415.417px 371.467px;" id="el1etfcobi4il" class="animable"></path><path d="M413,397.08c.05.21-.79.59-1.88.86a6.42,6.42,0,0,1-1.59.23l-.15-.45c.28-.05.46,0,.5,0s-.08.23-.31.4l-.15-.46a7.82,7.82,0,0,1,1.51-.52C412,396.92,413,396.87,413,397.08Z" style="fill: rgb(38, 50, 56); transform-origin: 411.191px 397.558px;" id="elg6teu0no1jn" class="animable"></path><path d="M414.53,407.45c.08.2-1,.81-2.4,1.36s-2.61.84-2.69.64,1-.81,2.41-1.36S414.45,407.25,414.53,407.45Z" style="fill: rgb(38, 50, 56); transform-origin: 411.985px 408.45px;" id="el7jj0rdsrq78" class="animable"></path><path d="M406.24,402.84c.07.21-.65.64-1.6,1s-1.78.42-1.85.22.64-.64,1.6-1S406.17,402.64,406.24,402.84Z" style="fill: rgb(38, 50, 56); transform-origin: 404.515px 403.45px;" id="elcfcmq9k0cbv" class="animable"></path><path d="M406.87,381.73c-.05.21-1.29.08-2.74-.43s-2.49-1.2-2.39-1.39,1.25.16,2.66.65S406.93,381.52,406.87,381.73Z" style="fill: rgb(38, 50, 56); transform-origin: 404.303px 380.842px;" id="elsf79rvtpbrm" class="animable"></path><path d="M426.94,379.44c.12.18-.59.85-1.57,1.5s-1.88,1-2,.85.58-.85,1.57-1.5S426.82,379.26,426.94,379.44Z" style="fill: rgb(38, 50, 56); transform-origin: 425.155px 380.61px;" id="eliar84vo1nj" class="animable"></path><path d="M428,389.85c0,.21-.7.55-1.65.74s-1.77.19-1.81,0,.7-.54,1.65-.74S428,389.64,428,389.85Z" style="fill: rgb(38, 50, 56); transform-origin: 426.269px 390.214px;" id="eld7or55mzfln" class="animable"></path><path d="M429.3,401.56c-.09.2-1.16-.1-2.38-.67s-2.14-1.18-2-1.37,1.15.1,2.37.66S429.39,401.37,429.3,401.56Z" style="fill: rgb(38, 50, 56); transform-origin: 427.106px 400.542px;" id="elt26tnpeqjjb" class="animable"></path><path d="M426.61,413c-.16.13-.85-.43-1.54-1.27s-1.1-1.62-.94-1.75.86.42,1.55,1.26S426.78,412.83,426.61,413Z" style="fill: rgb(38, 50, 56); transform-origin: 425.372px 411.49px;" id="eli6nqcj22epd" class="animable"></path><path d="M426.06,371.77c.14.16-.32.74-1.1,1.13s-1.52.41-1.57.21.51-.55,1.22-.91S425.93,371.59,426.06,371.77Z" style="fill: rgb(38, 50, 56); transform-origin: 424.736px 372.472px;" id="eltucdpy0qxnc" class="animable"></path><path d="M435.9,382.27c.07.2-.84.7-2.09.87s-2.25-.06-2.24-.27,1-.34,2.14-.5S435.83,382.06,435.9,382.27Z" style="fill: rgb(38, 50, 56); transform-origin: 433.737px 382.683px;" id="elk6dgj53cx0o" class="animable"></path><path d="M433.94,372.84c.09.19-.81.84-2.09,1.24s-2.4.42-2.43.21,1-.56,2.19-1S433.84,372.64,433.94,372.84Z" style="fill: rgb(38, 50, 56); transform-origin: 431.683px 373.593px;" id="elb3azw5fjvbt" class="animable"></path><path d="M438,396.88c0,.21-1.54.34-3.41,0s-3.26-1-3.19-1.2,1.53.11,3.33.43S438.05,396.66,438,396.88Z" style="fill: rgb(38, 50, 56); transform-origin: 434.699px 396.353px;" id="elf1w188t2nje" class="animable"></path><path d="M434.39,410.58c-.13.16-1.27-.5-2.4-1.65s-1.8-2.28-1.64-2.41,1.09.76,2.19,1.86S434.53,410.4,434.39,410.58Z" style="fill: rgb(38, 50, 56); transform-origin: 432.366px 408.556px;" id="ely0p4jhn7s3" class="animable"></path><path d="M418.32,361.69c.12.17-3.11,1.48-6.85,5.42A33.48,33.48,0,0,0,402.92,386a42.59,42.59,0,0,0,.52,11.57,87.21,87.21,0,0,0,2.17,9.28c.75,2.62,1.44,4.71,1.9,6.16a15.72,15.72,0,0,1,.66,2.28,13,13,0,0,1-.95-2.18c-.55-1.42-1.32-3.49-2.14-6.1a78.68,78.68,0,0,1-2.35-9.32,41.18,41.18,0,0,1-.58-11.78,32.89,32.89,0,0,1,8.92-19.18,24.55,24.55,0,0,1,5.11-4,14.23,14.23,0,0,1,1.57-.81A2.31,2.31,0,0,1,418.32,361.69Z" style="fill: rgb(255, 255, 255); transform-origin: 410.145px 388.49px;" id="el0lc1ic3i6b9" class="animable"></path><path d="M429,415.79c-.17-.08,1.76-3.05,3.52-8.4a47.49,47.49,0,0,0,2.1-21.6,40.5,40.5,0,0,0-3.33-11.52,27.18,27.18,0,0,0-5.68-7.92,20.71,20.71,0,0,0-5.57-3.51c-1.44-.61-2.31-.75-2.3-.82a2.21,2.21,0,0,1,.64.05,12.94,12.94,0,0,1,1.77.48,19.16,19.16,0,0,1,5.82,3.39,26.66,26.66,0,0,1,6,8,40.31,40.31,0,0,1,3.46,11.73A46,46,0,0,1,433,407.57c-.44,1.35-1,2.51-1.43,3.55s-.92,1.89-1.3,2.58A13.73,13.73,0,0,1,429,415.79Z" style="fill: rgb(255, 255, 255); transform-origin: 426.783px 388.902px;" id="elq32vjfcd94" class="animable"></path></g><g id="freepik--Character--inject-100" class="animable animator-active" style="transform-origin: 263.856px 255.705px;"><path d="M331.78,157.12c-6.44-2.35-13.46-2.52-20.11-4.19a45.83,45.83,0,0,1-15.29-7c-8.42-5.94-14.57-14.52-22.19-21.46-7.91-7.19-17.29-12.52-26.59-17.8-11.82-6.7-24.17-13.57-37.73-14.51a45.69,45.69,0,0,0-17.71,2.29c-9,3-17.34,9.42-20.45,18.39s-2.28,18.87.71,27.94c2.45,7.4,7,14.89,11.49,21.23s11,11.61,18.67,13.22l101.79,43.64c5,4.65,12.58,5.36,19.26,4,14.58-3,26.94-15.43,29-30.15S345.75,162.21,331.78,157.12Z" style="fill: rgb(38, 50, 56); transform-origin: 261.333px 157.77px;" id="el4bdsnmeaw8h" class="animable"></path><path d="M303.45,153.73a509.61,509.61,0,0,1,4.11,63.44c0,10.53-.27,21.2,2.28,31.42,2.45,9.79,7.41,18.74,11,28.17,5.16,13.56,7.45,28,9.7,42.33,2.57,16.31,5.1,33.26.39,49.08a9.77,9.77,0,0,1-2.68,4.9,10.43,10.43,0,0,1-5.34,1.84,199.39,199.39,0,0,1-30.2,2,7.54,7.54,0,0,1-4.53-1c-1.79-1.34-2-3.88-2.13-6.12-1.73-40.93-3.45-81.89-3-122.86.12-11.26.42-22.67,3.55-33.49" style="fill: rgb(0, 255, 136); transform-origin: 308.273px 265.337px;" id="elaw289rtgw1g" class="animable"></path><path d="M245.2,109c9.5-3.6,20.08-.07,29.56,3.59,7.24,2.78,14.71,5.83,19.9,11.59,8.55,9.49,8.73,23.55,9.66,36.29.82,11.28,2.61,22.62,1.22,33.84s-11.32,43.91-21.13,49.55c-2.17-16.3.42-53.82-1.75-70.12-1.18-8.81-2.35-17.65-4.57-26.26-2-7.87-5-15.73-10.53-21.74-6.47-7.1-15.66-10.93-24.54-14.56" style="fill: rgb(0, 255, 136); transform-origin: 274.536px 175.678px;" id="elwz52tmib0ka" class="animable"></path><path d="M197.75,260.57c8.62-35.14-4.66-100.34,21-140.48l19.47,26.13c11.35,35.68,10.68,73.9,9.89,111.33-.07,3.38-.19,6.94-2,9.8-3.57,5.74-11.66,6-18.4,5.64-6-.34-17.91,4.45-22.09.11C201.76,269.05,196.41,266,197.75,260.57Z" style="fill: rgb(0, 255, 136); transform-origin: 223.017px 197.51px;" id="el4fr0976lqev" class="animable"></path><path d="M282.62,130.48l-32-12.89-8.37.94c-18.83,0-31.92,20.68-32.11,35.93-.22,16.94.18,37.63,2.82,50.14,5.29,25.13,24.87,27.39,24.87,27.39s-.23,6.86-.43,15.29a26.62,26.62,0,0,0,27.15,27.24h0A26.61,26.61,0,0,0,290.64,248l.4-108.89A8.92,8.92,0,0,0,282.62,130.48Z" style="fill: rgb(255, 190, 157); transform-origin: 250.564px 196.058px;" id="eln4lgoyf12p" class="animable"></path><path d="M211.2,149.82a254.34,254.34,0,0,0,4,52.77c1.58,8.67,4.31,18.24,12,22.57,6.87,3.86,15.4,2.2,23.07.38,8.27-2,16.88-4.18,23.23-9.84,5.14-4.57,8.31-11,10-17.72s2-13.61,2.15-20.49q.27-9.93.23-19.86c0-4.82-.1-9.76-1.85-14.25-2-5-5.87-9.08-9.85-12.75a43.64,43.64,0,0,0-10.51-7.69c-4.66-2.22-9.88-3-15-3.66a47,47,0,0,0-9.32-.67c-8.26.49-15.89,5.43-20.72,12.15s-7.07,15.06-7.51,23.33" style="fill: rgb(255, 255, 255); transform-origin: 248.491px 173.049px;" id="el0vr9d9szdtw" class="animable"></path><path d="M230.06,164a14.21,14.21,0,0,0-1.43-2.59,9.73,9.73,0,0,0-12.47-2.51,5.25,5.25,0,0,0-2.6,3.32,4,4,0,0,0-.22.67,7.46,7.46,0,0,0,.62,4,33.29,33.29,0,0,0,3.24,6.45c1.1,1.71,2.7,3.49,4.74,3.39a6.3,6.3,0,0,0,2.3-.72c2.72-1.24,5.71-2.77,6.64-5.6C231.57,168.27,230.94,166,230.06,164Z" style="fill: rgb(69, 90, 100); transform-origin: 222.23px 167.189px;" id="el1ar8vns0aba" class="animable"></path><path d="M216.76,184.74c.75,6.72,4.6,11.76,6.68,18.19l.9-2.46a42.31,42.31,0,0,0,3.77,8,28.17,28.17,0,0,0,3-4.32,35,35,0,0,0,8.18,9.55,54.38,54.38,0,0,1,2.67-6.52l3.43,3.9q1.25-2.72,2.47-5.43c.15-.34.41-.75.79-.71a.92.92,0,0,1,.54.35l2,2.06a1,1,0,0,0,.44.33c.62.2,1-.61,1.17-1.24a20.6,20.6,0,0,1,1.49-4.11c.2-.39.57-.85,1-.69a1,1,0,0,1,.42.46l1.86,3.4c2.08-2.65,2.05-6.38,3.57-9.38q1.42,2.07,2.7,4.25c4.7-7.94,9.67-25.71,8.84-31.57-1,1.84-4.18,9-5,10.95-1.34,3.38-4.28,6.46-5.62,9.84a59.11,59.11,0,0,0-2.05-7.9L256.19,194c-.6-2.12-1.21-4.23-1.81-6.35A33.66,33.66,0,0,1,250,196a29.89,29.89,0,0,0-2.53-6.33c-1.13,2-2.25,4-3.38,5.93a1.57,1.57,0,0,1-.74.8c-.51.18-1-.19-1.44-.54l-5-4.18a17,17,0,0,0-.1,6.31c-2.74-1.78-3.58-5.41-5.75-7.86a.8.8,0,0,0-.45-.3c-.49-.06-.61.67-.52,1.16.28,1.61.57,3.23.86,4.85a44.91,44.91,0,0,1-7-14.87c-.76,2.3-2.38,7.07-2.37,9.5-2.77-5-6.35-13.61-7-17.92-1,3.47-.21,10.68.92,14.11" style="fill: rgb(69, 90, 100); transform-origin: 243.447px 191.25px;" id="ellx416lxcn0h" class="animable"></path><path d="M267.62,166.68a36.67,36.67,0,0,0-1.31-6.14,7.4,7.4,0,0,0-1-2.26,7.7,7.7,0,0,0-3.59-2.33,8.38,8.38,0,0,0-4-.67,11.06,11.06,0,0,0-5.35,1.22c-2.36,1-4.43,3.09-4.65,5.64a10.52,10.52,0,0,0,.6,3.79,21,21,0,0,0,3.06,7c1.55,2,4,3.56,6.6,3.25a9.56,9.56,0,0,0,3.24-1.17,26.92,26.92,0,0,0,4.05-2.7,6.41,6.41,0,0,0,2.27-2.87A6.67,6.67,0,0,0,267.62,166.68Z" style="fill: rgb(69, 90, 100); transform-origin: 257.722px 165.737px;" id="elb6wmwv8c96j" class="animable"></path><path d="M216.72,168.82a3.26,3.26,0,0,0,3.3,3.12,3.12,3.12,0,0,0,3.21-3.1,3.26,3.26,0,0,0-3.3-3.12A3.12,3.12,0,0,0,216.72,168.82Z" style="fill: rgb(38, 50, 56); transform-origin: 219.975px 168.83px;" id="el8tezcybc2c5" class="animable"></path><path d="M215.18,163.11c.42.4,2.79-1.54,6.29-1.71s6.15,1.46,6.51,1c.17-.2-.28-.94-1.43-1.7a8.89,8.89,0,0,0-5.24-1.33,8.53,8.53,0,0,0-5,1.89C215.3,162.15,215,162.93,215.18,163.11Z" style="fill: rgb(38, 50, 56); transform-origin: 221.573px 161.259px;" id="elfzzdpc09w57" class="animable"></path><path d="M237.85,232a64.59,64.59,0,0,0,33.49-10.76s-8.16,18-33.64,16.92Z" style="fill: rgb(235, 153, 110); transform-origin: 254.52px 229.723px;" id="ela7r5b8r0y" class="animable"></path><path d="M252,195.73c-.53-.21-1.72,3.4-5.65,5s-7.65-.1-7.84.39c-.13.21.63,1,2.24,1.56a9.42,9.42,0,0,0,6.47-.12,8.25,8.25,0,0,0,4.51-4.23C252.37,196.82,252.26,195.79,252,195.73Z" style="fill: rgb(38, 50, 56); transform-origin: 245.35px 199.458px;" id="elmiww972pksg" class="animable"></path><path d="M215.68,155c.66.76,3-.18,5.92-.36s5.38.26,5.9-.6c.23-.41-.2-1.19-1.31-1.89a8.59,8.59,0,0,0-9.52.77C215.69,153.76,215.39,154.6,215.68,155Z" style="fill: rgb(38, 50, 56); transform-origin: 221.567px 153.177px;" id="elzc8328ohqta" class="animable"></path><path d="M258.1,167.71A3.26,3.26,0,0,1,255,171a3.11,3.11,0,0,1-3.39-2.89,3.25,3.25,0,0,1,3.09-3.32A3.11,3.11,0,0,1,258.1,167.71Z" style="fill: rgb(38, 50, 56); transform-origin: 254.855px 167.895px;" id="eldghfsdqdjzi" class="animable"></path><path d="M263.5,162.7c-.39.43-2.88-1.36-6.38-1.31s-6.05,1.84-6.43,1.41c-.19-.18.21-1,1.32-1.78a8.9,8.9,0,0,1,5.14-1.66,8.55,8.55,0,0,1,5.09,1.57C263.33,161.74,263.7,162.51,263.5,162.7Z" style="fill: rgb(38, 50, 56); transform-origin: 257.098px 161.113px;" id="elng0v4vtblqn" class="animable"></path><path d="M262.73,141c-.51,1-3.35.62-6.56,1.2s-5.81,1.73-6.61.94c-.36-.4-.1-1.36.92-2.42A9.67,9.67,0,0,1,261.09,139C262.4,139.68,263,140.52,262.73,141Z" style="fill: rgb(38, 50, 56); transform-origin: 256.1px 140.767px;" id="eljkge0euaa5" class="animable"></path><path d="M250.36,108.4c-44.42-6.26-40.25,48.67-40.25,48.67l-.32.68c3.26-24.37,36.92-40.26,36.92-40.26l7-1.18Z" style="fill: rgb(0, 255, 136); transform-origin: 231.75px 132.826px;" id="elmnbeojfnov" class="animable"></path><path d="M286,181.93c-.09-1.88,1.87-6.44,3.72-6.83,4.94-1,13.93-1.07,14.64,11.56,1,17.27-16.56,14.69-16.62,14.2S286.3,188.45,286,181.93Z" style="fill: rgb(255, 190, 157); transform-origin: 295.199px 187.991px;" id="el7gsepyixbxa" class="animable"></path><path d="M292.64,194c.07-.06.31.19.83.4a3.05,3.05,0,0,0,2.25-.09c1.79-.77,3.16-3.75,3.07-6.87a10,10,0,0,0-1.09-4.26,3.48,3.48,0,0,0-2.39-2.18,1.54,1.54,0,0,0-1.73.92c-.2.5-.07.84-.16.87s-.39-.26-.29-1a1.93,1.93,0,0,1,.62-1.12,2.26,2.26,0,0,1,1.63-.53,4.24,4.24,0,0,1,3.3,2.5,10.4,10.4,0,0,1,1.32,4.75c.08,3.49-1.51,6.85-4,7.71a3.21,3.21,0,0,1-2.78-.3C292.69,194.43,292.58,194.05,292.64,194Z" style="fill: rgb(235, 153, 110); transform-origin: 296.314px 187.71px;" id="elcrffpzbwxaf" class="animable"></path><path d="M296.66,138.82c-1.25-5.65-5.46-10.15-9.9-13.86-5.75-4.8-12.28-8.82-19.52-10.75s-15.24-.08-21.88,3.38a165.2,165.2,0,0,1,24.79,26.25,43.19,43.19,0,0,1,5.52,8.55c2.69,6.08,2.49,13.17,5.45,19.12a9.49,9.49,0,0,0,3.22,3.94,4.77,4.77,0,0,0,4.88.3c1.15-.69,1.87-2,3-2.67.71-.42,1.55-.61,2.22-1.1,1.38-1,1.61-3,1.71-4.68q.61-10.41.92-20.84A31,31,0,0,0,296.66,138.82Z" style="fill: rgb(0, 255, 136); transform-origin: 271.253px 144.856px;" id="eltqznn7113q" class="animable"></path><path d="M262.78,133.64s-.62-.14-1.72-.35a28.31,28.31,0,0,0-4.75-.44c-2,0-4.43,0-7.1.08s-5.61.16-8.69.37A77.76,77.76,0,0,0,225,135.76c-1.94.55-3.48,1.08-4.54,1.47a10.05,10.05,0,0,1-1.66.58,11.4,11.4,0,0,1,1.58-.77c1-.45,2.58-1,4.52-1.64a71,71,0,0,1,15.62-2.62c3.09-.21,6-.29,8.71-.33s5.09-.06,7.12,0a24.84,24.84,0,0,1,4.78.61,10.42,10.42,0,0,1,1.26.37A1.48,1.48,0,0,1,262.78,133.64Z" style="fill: rgb(38, 50, 56); transform-origin: 240.79px 135.111px;" id="elaw18783rfu" class="animable"></path><path d="M228.19,137.48a8.58,8.58,0,0,1-.27-2.36,8.24,8.24,0,0,1-.09-2.37,4.24,4.24,0,0,1,.61,2.33A4.37,4.37,0,0,1,228.19,137.48Z" style="fill: rgb(38, 50, 56); transform-origin: 228.145px 135.115px;" id="elx8e2acz1vaj" class="animable"></path><path d="M232.23,135.72c-.15,0-.13-.81-.14-1.76s-.05-1.73.1-1.76.41.75.42,1.76S232.37,135.75,232.23,135.72Z" style="fill: rgb(38, 50, 56); transform-origin: 232.344px 133.96px;" id="eliw1gnyjfx" class="animable"></path><path d="M238.52,136.8c-.15,0-.05-1.28-.37-2.77s-.88-2.61-.75-2.68a5.77,5.77,0,0,1,1.12,5.45Z" style="fill: rgb(38, 50, 56); transform-origin: 238.08px 134.075px;" id="elcmitmnrjxv6" class="animable"></path><path d="M244.89,136.39c-.15,0,0-1.28-.37-2.76s-1-2.57-.82-2.65a5.47,5.47,0,0,1,1.19,5.41Z" style="fill: rgb(38, 50, 56); transform-origin: 244.413px 133.685px;" id="elg92kcl706ha" class="animable"></path><path d="M251.24,135.85c-.15,0-.21-1.16-.64-2.49s-1-2.32-.92-2.41a5.26,5.26,0,0,1,1.56,4.9Z" style="fill: rgb(38, 50, 56); transform-origin: 250.51px 133.4px;" id="elb6ulc44aob8" class="animable"></path><path d="M258.05,136.27a18.4,18.4,0,0,0-1.34-3.18,19,19,0,0,0-2.29-2.59,5.92,5.92,0,0,1,3.63,5.77Z" style="fill: rgb(38, 50, 56); transform-origin: 256.239px 133.385px;" id="elmzn1icelssl" class="animable"></path><path d="M260.08,176.89s-.21.17-.63.38a11.19,11.19,0,0,1-1.87.69,5,5,0,0,1-3-.11,10.86,10.86,0,0,1-2.94-2.16,20,20,0,0,1-3.94-5.24,8.21,8.21,0,0,1-1-2.53c.07,0,.47.93,1.3,2.35a22.76,22.76,0,0,0,4,5,11.41,11.41,0,0,0,2.76,2.1,4.8,4.8,0,0,0,2.75.19C259.09,177.25,260,176.8,260.08,176.89Z" style="fill: rgb(38, 50, 56); transform-origin: 253.39px 173.029px;" id="el2l9mqax559y" class="animable"></path><path d="M244,182.22c-.38-1.19-.86-2.34-1.33-3.49-1-2.52-2.09-5-3.13-7.57-.14-.35-.4-.76-.72-.65-2.32,2.83-3.11,6.74-3.61,10.55a14.9,14.9,0,0,0,0,4.85c.14.76.55,1.62,1.24,1.66a1.32,1.32,0,0,0,.78-.29c1.24-.89,1.72-2.65,2-4.28a8.52,8.52,0,0,0,1.58,3.34,2.45,2.45,0,0,0,1.66,1.1,1.72,1.72,0,0,0,1.46-.83C244.72,185.41,244.44,183.66,244,182.22Z" style="fill: rgb(69, 90, 100); transform-origin: 239.72px 179.031px;" id="elfzluxjq55a8" class="animable"></path><path d="M239.5,187.23s-.06.21-.25.54a5.52,5.52,0,0,1-1,1.29,2.89,2.89,0,0,1-2.34.83,2.94,2.94,0,0,1-2.18-2.1,11.22,11.22,0,0,1,.08-5.35,15.42,15.42,0,0,1,.46-2.15,7,7,0,0,1-.09,2.2,12.48,12.48,0,0,0,0,5.13,2.5,2.5,0,0,0,1.77,1.79,2.55,2.55,0,0,0,2-.63C239,187.93,239.42,187.16,239.5,187.23Z" style="fill: rgb(38, 50, 56); transform-origin: 236.473px 185.098px;" id="eldl2q3ji3q1" class="animable"></path><path d="M246.19,183.46c.07,0,.21.49.27,1.33a4.5,4.5,0,0,1-.91,3.19,3,3,0,0,1-1.64,1,3.72,3.72,0,0,1-1.53,0c-.85-.19-1.26-.55-1.23-.6s.5.15,1.29.23a3.06,3.06,0,0,0,2.71-.92,4.63,4.63,0,0,0,.94-2.85C246.12,184,246.11,183.46,246.19,183.46Z" style="fill: rgb(38, 50, 56); transform-origin: 243.815px 186.26px;" id="el99et0pw562" class="animable"></path><path d="M275.14,165.42s-.31-.07-.77-.36a7.47,7.47,0,0,1-1.68-1.6,25.28,25.28,0,0,1-3.52-6.69,28.14,28.14,0,0,1-1.55-7.4c-.05-1-.05-1.76,0-2.3a2.79,2.79,0,0,1,.1-.83c.09,0,.09,1.19.3,3.09a32.69,32.69,0,0,0,1.67,7.26,29.44,29.44,0,0,0,3.33,6.65A10.93,10.93,0,0,0,275.14,165.42Z" style="fill: rgb(38, 50, 56); transform-origin: 271.361px 155.83px;" id="elc0617a9b0so" class="animable"></path><path d="M270.55,206.06a3.14,3.14,0,0,1-.33-1,13.13,13.13,0,0,1-.28-2.92c0-2.5.79-5.85,1.75-9.47a51.5,51.5,0,0,1,3.12-9.11,23.94,23.94,0,0,1,1.42-2.56,4.57,4.57,0,0,1,.64-.86c.07,0-.75,1.33-1.72,3.58a61.66,61.66,0,0,0-2.95,9.09,46.31,46.31,0,0,0-1.89,9.34A24.59,24.59,0,0,0,270.55,206.06Z" style="fill: rgb(38, 50, 56); transform-origin: 273.406px 193.1px;" id="elobq17oqwlog" class="animable"></path><path d="M235.22,165.93a7,7,0,0,1-.13,2.41,10,10,0,0,1-.78,2.53,10.41,10.41,0,0,1-1.89,2.64,15.08,15.08,0,0,1-4.8,3.33,6.46,6.46,0,0,1-2.31.68c0-.08.85-.36,2.16-1a17.31,17.31,0,0,0,4.57-3.35,9.67,9.67,0,0,0,2.69-4.89C235.05,166.84,235.14,165.92,235.22,165.93Z" style="fill: rgb(38, 50, 56); transform-origin: 230.29px 171.725px;" id="el5aqnkz1mfnn" class="animable"></path><path d="M269.34,141.28a440.71,440.71,0,0,1,11.18,71.78,13.56,13.56,0,0,0,1.36,6c1,1.79,3.27,3.07,5.21,2.34a5.85,5.85,0,0,0,2.43-2.1,22.37,22.37,0,0,0,3.4-6.58,8.87,8.87,0,0,1-6.33,4.9,477.94,477.94,0,0,1-8.34-76.85" style="fill: rgb(0, 255, 136); transform-origin: 281.13px 181.189px;" id="elafd2fj4wj28" class="animable"></path><path d="M306.12,103.84c1.61-18.45,8.3-36,13.91-53.66.9-2.82,1.44-6.6-1.1-8.12-2.16-1.3-4.87.13-7,1.53L271.1,70.9C262,77,252.91,83.07,244.72,90.29a123,123,0,0,0-13.2,13.61c17.65,7.7,32.69,27.27,48.83,37.77a120.19,120.19,0,0,0,13,7c9.05,4.42,11,3.26,20.59,5C300.56,141,304.52,122.29,306.12,103.84Z" style="fill: rgb(38, 50, 56); transform-origin: 276.149px 97.6097px;" id="el31moy12eko1" class="animable"></path><polygon points="282.96 102.1 283.71 103.63 285.4 103.87 284.18 105.06 284.47 106.74 282.96 105.95 281.45 106.74 281.74 105.06 280.51 103.87 282.2 103.63 282.96 102.1" style="fill: rgb(255, 255, 255); transform-origin: 282.955px 104.42px;" id="elrb4ddo3wgmi" class="animable"></polygon><polygon points="259.22 106.14 260.87 106.58 262.17 105.47 262.26 107.17 263.71 108.06 262.12 108.68 261.73 110.33 260.65 109.01 258.95 109.15 259.88 107.72 259.22 106.14" style="fill: rgb(255, 255, 255); transform-origin: 261.33px 107.9px;" id="el4230ak581cu" class="animable"></polygon><polygon points="282.85 126.31 284.5 126.75 285.8 125.64 285.89 127.35 287.34 128.24 285.75 128.85 285.36 130.51 284.28 129.19 282.58 129.32 283.51 127.89 282.85 126.31" style="fill: rgb(255, 255, 255); transform-origin: 284.96px 128.075px;" id="elttoifs7kv7s" class="animable"></polygon><polygon points="288.34 73.49 289.08 75.02 290.77 75.28 289.54 76.46 289.82 78.14 288.32 77.34 286.81 78.13 287.1 76.45 285.89 75.25 287.58 75.01 288.34 73.49" style="fill: rgb(255, 255, 255); transform-origin: 288.33px 75.815px;" id="elkhz1ziu7ad" class="animable"></polygon><polygon points="300.31 94.86 301.05 96.39 302.74 96.64 301.51 97.83 301.79 99.51 300.29 98.71 298.77 99.49 299.07 97.81 297.86 96.62 299.55 96.38 300.31 94.86" style="fill: rgb(255, 255, 255); transform-origin: 300.3px 97.185px;" id="elvblm60fn3n9" class="animable"></polygon><polygon points="309.91 60.41 309.54 62.08 310.7 63.33 309 63.49 308.17 64.98 307.49 63.41 305.82 63.08 307.1 61.96 306.89 60.26 308.36 61.13 309.91 60.41" style="fill: rgb(255, 255, 255); transform-origin: 308.26px 62.62px;" id="elk9foesuee4r" class="animable"></polygon><polygon points="264.92 84.86 264.55 86.53 265.71 87.78 264.01 87.94 263.19 89.42 262.51 87.86 260.83 87.53 262.11 86.4 261.91 84.71 263.38 85.58 264.92 84.86" style="fill: rgb(255, 255, 255); transform-origin: 263.27px 87.065px;" id="elqdsbbknfpjf" class="animable"></polygon><path d="M171.27,114.26a1.14,1.14,0,0,1,.12-.32l.37-.94c.33-.82.77-2.06,1.47-3.61a16.53,16.53,0,0,1,1.4-2.5c.64-.82,1.3-1.76,2.08-2.71a36.86,36.86,0,0,1,6.16-5.74,34.69,34.69,0,0,1,9.25-4.67,41,41,0,0,1,11.95-2,60.88,60.88,0,0,1,27.79,6.32h0a41.3,41.3,0,0,1,8.25,4.82,55.17,55.17,0,0,1,7.33,6.73c4.6,5,8.63,10.68,13.57,15.78,2.67,2.74,5.55,5.22,8.39,7.64,1.43,1.2,2.86,2.39,4.32,3.5s2.93,2.2,4.45,3.18a100.83,100.83,0,0,0,18.35,9.8,171.33,171.33,0,0,0,17.86,6.11c5.69,1.64,11,3.15,15.88,4.36a38.37,38.37,0,0,1,6.81,2.35,24.84,24.84,0,0,1,5.41,3.46,33.38,33.38,0,0,1,6.64,7.82,24.25,24.25,0,0,1,2.67,5.92,14.94,14.94,0,0,1,.37,1.65c.06.37.08.57.08.57s-.05-.19-.13-.56-.21-.92-.42-1.63a24.83,24.83,0,0,0-2.74-5.84,33.5,33.5,0,0,0-6.65-7.7,24.47,24.47,0,0,0-5.37-3.39,38.14,38.14,0,0,0-6.77-2.29c-4.89-1.19-10.21-2.68-15.9-4.3A173.33,173.33,0,0,1,296.33,150a102.2,102.2,0,0,1-18.46-9.83c-1.52-1-3-2.11-4.47-3.19s-2.91-2.31-4.34-3.51c-2.85-2.43-5.74-4.91-8.43-7.68-5-5.14-9-10.87-13.57-15.79a54.8,54.8,0,0,0-7.26-6.68,41,41,0,0,0-8.14-4.77h0a60.72,60.72,0,0,0-27.56-6.34,41.12,41.12,0,0,0-11.85,1.94A35.07,35.07,0,0,0,183,98.68a36.51,36.51,0,0,0-6.15,5.65c-.79.94-1.46,1.86-2.1,2.68a16.75,16.75,0,0,0-1.42,2.44c-.72,1.54-1.18,2.77-1.54,3.58l-.41.92A1.55,1.55,0,0,1,171.27,114.26Z" style="fill: rgb(69, 90, 100); transform-origin: 261.755px 136.773px;" id="elludj7f8xmus" class="animable"></path><path d="M297.3,82.68a5.91,5.91,0,0,1-.1.76l-.36,2.17a73.24,73.24,0,0,0-.81,8,86,86,0,0,0,.41,12A114.07,114.07,0,0,0,299,120.07c1.2,5.07,2.61,9.83,4,14.14.68,2.15,1.35,4.2,2,6.1a38,38,0,0,0,2,5.19,21.64,21.64,0,0,0,4.62,6.53,13.45,13.45,0,0,0,2.41,1.7,5.5,5.5,0,0,1-.71-.3,9.78,9.78,0,0,1-1.83-1.25,20.91,20.91,0,0,1-4.82-6.52,37.42,37.42,0,0,1-2.09-5.21c-.66-1.9-1.34-3.94-2-6.09-1.39-4.31-2.82-9.08-4-14.17a109.41,109.41,0,0,1-2.5-14.53,84,84,0,0,1-.3-12,64.22,64.22,0,0,1,1-8c.19-.9.34-1.62.46-2.16A3.41,3.41,0,0,1,297.3,82.68Z" style="fill: rgb(69, 90, 100); transform-origin: 304.86px 118.205px;" id="el16qdw8x6ydw" class="animable"></path><path d="M189,365.33l1.28-112.84c49.16-10.37,90.21-3.69,137.2,4.49,0,0,6.31,50.28,6.32,54.69,0,11.18-11,95.34-11,95.34l20.57,62.85-162.4-.69,20-42.46Z" style="fill: rgb(69, 90, 100); transform-origin: 262.17px 358.527px;" id="el9g136zya9w5" class="animable"></path><path d="M327,257s22.77,4,28.84,24.29,21.06,119.43,19.92,136c-.36,5.27-2.67,10.15-4.94,11.94-10.78,8.5-25.15,15.83-47.36,8.43a173,173,0,0,1-47.81-25.5l14.2-19.31s38.67,9.66,47.77,6.63l-5.51-53.5Z" style="fill: rgb(255, 190, 157); transform-origin: 325.736px 348.856px;" id="elx01kx9lg1o" class="animable"></path><path d="M226.94,283.28l-24.59-.15-4.85,25,2.84-16.54-10.1-39.12s-21.91,8.31-26.12,35.5-3.21,101.84,0,110.54c5.19,14,12.42,35.38,35.88,21.74C231.25,402.11,226.94,283.28,226.94,283.28Z" style="fill: rgb(255, 190, 157); transform-origin: 194.233px 338.546px;" id="elvai9qoc76x" class="animable"></path><path d="M202.35,283.13a.85.85,0,0,1,0,.28c0,.22-.09.48-.16.82-.15.75-.37,1.8-.65,3.14l-2.26,11.56c-1,4.89-2.08,10.71-3.61,17.11s-3.62,13.35-6,20.55c-4.85,14.41-9.95,27.19-13.24,36.57-1.66,4.69-2.85,8.53-3.54,11.23-.17.66-.32,1.26-.45,1.79s-.19.95-.26,1.32-.13.61-.18.82a1,1,0,0,1-.07.27,1.19,1.19,0,0,1,0-.28c0-.21.07-.49.12-.82s.14-.83.22-1.34.25-1.14.4-1.81c.63-2.72,1.78-6.59,3.39-11.3,3.21-9.43,8.25-22.22,13.09-36.61,2.41-7.2,4.55-14.1,6.06-20.5s2.73-12.19,3.72-17.07,1.8-8.82,2.42-11.54c.31-1.35.57-2.4.75-3.11l.21-.81A1.1,1.1,0,0,1,202.35,283.13Z" style="fill: rgb(235, 153, 110); transform-origin: 187.142px 335.86px;" id="el7rejtct8tt" class="animable"></path><polygon points="292.92 252.16 290.68 236.96 237.64 238.94 235.53 247.19 266.68 265.35 292.92 252.16" style="fill: rgb(69, 90, 100); transform-origin: 264.225px 251.155px;" id="elk73rwqtn82" class="animable"></polygon><path d="M161.33,323.68c.29,0,30.27,5.92,30.42,5.43s8.48-29.32,8.59-37.5l-4.19-40.46s-15.43.17-27.26,19.7-17,50.7-17,50.7Z" style="fill: rgb(69, 90, 100); transform-origin: 176.115px 290.144px;" id="elszkoijnxwra" class="animable"></path><path d="M325.48,349.65,372,326.13s-8.45-69-45-69.15l-13.6,35.87Z" style="fill: rgb(69, 90, 100); transform-origin: 342.7px 303.315px;" id="elyf8wl1re0pi" class="animable"></path><path d="M295.8,348a13.88,13.88,0,0,1-1.76-.19l-4.77-.66a86.59,86.59,0,0,0-15.79-.93A39.63,39.63,0,0,0,258.23,350a29.24,29.24,0,0,0-4.13,2.42,15.39,15.39,0,0,1-1.45,1s.1-.12.32-.32.55-.51,1-.85a25.39,25.39,0,0,1,4.09-2.58,37.92,37.92,0,0,1,15.39-3.88,77.51,77.51,0,0,1,15.87,1.09c2,.32,3.63.61,4.75.82A11.07,11.07,0,0,1,295.8,348Z" style="fill: rgb(38, 50, 56); transform-origin: 274.225px 349.582px;" id="elddfo098kkmb" class="animable"></path><path d="M327.92,362.72a5.27,5.27,0,0,1,.07-.84c.08-.59.19-1.39.32-2.39.29-2.07.76-5.07,1.36-8.77s1.32-8.09,1.71-13a60.23,60.23,0,0,0-.7-16,178.84,178.84,0,0,0-8.07-28.05l-3.06-8.32-.83-2.27a4.61,4.61,0,0,1-.25-.8,4.31,4.31,0,0,1,.35.77l.92,2.23c.78,1.94,1.89,4.76,3.21,8.26a166.4,166.4,0,0,1,8.24,28.08,59.18,59.18,0,0,1,.67,16.11c-.42,4.95-1.21,9.34-1.83,13s-1.15,6.62-1.52,8.73c-.17,1-.31,1.79-.41,2.38A4.78,4.78,0,0,1,327.92,362.72Z" style="fill: rgb(38, 50, 56); transform-origin: 325.299px 322.5px;" id="el31a9ozfupw7" class="animable"></path><path d="M348.07,268.25h-.44l-1.27-.07-4.92-.28-18.08-1.09c-15.27-.91-36.36-2.1-59.67-3.3L204,260.56l-18.09-.91-4.92-.27-1.28-.08-.43-.05h.43l1.28,0,4.93.18,18.09.75c15.28.65,36.39,1.6,59.71,2.79s44.4,2.45,59.66,3.46l18.07,1.25,4.91.38,1.28.11A2.33,2.33,0,0,1,348.07,268.25Z" style="fill: rgb(255, 255, 255); transform-origin: 263.675px 263.75px;" id="el4lnatb9ffek" class="animable"></path><path d="M322.53,291.59h-1.6l-4.61-.05c-2,0-4.44-.05-7.28-.2s-6.07-.23-9.64-.5c-14.28-.88-33.94-2.92-55.58-5.66s-41.23-5.33-55.47-6.58c-3.56-.33-6.79-.51-9.62-.73l-7.27-.3-4.6,0h-1.2a1.71,1.71,0,0,1-.4,0,3.55,3.55,0,0,1,.4,0l1.2,0,4.6-.13,7.29.2c2.83.2,6.07.35,9.63.66,14.26,1.17,33.86,3.7,55.51,6.44s41.27,4.83,55.54,5.8c3.56.3,6.79.39,9.62.57s5.28.25,7.28.3l4.6.15,1.2.05A1.6,1.6,0,0,1,322.53,291.59Z" style="fill: rgb(255, 255, 255); transform-origin: 243.895px 284.525px;" id="el83i7wuut2t" class="animable"></path><path d="M363.37,296.6a8.58,8.58,0,0,1-1.49.28l-4.06.57c-3.43.47-8.18,1.07-13.42,1.7s-10,1.18-13.44,1.54l-4.09.41a7.36,7.36,0,0,1-1.5.08,9.28,9.28,0,0,1,1.48-.28l4.06-.57c3.43-.46,8.18-1.06,13.43-1.7s10-1.17,13.44-1.54l4.08-.41A7.46,7.46,0,0,1,363.37,296.6Z" style="fill: rgb(255, 255, 255); transform-origin: 344.37px 298.89px;" id="elp033tagh91" class="animable"></path><path d="M194.05,314.08a8.58,8.58,0,0,1-1.52-.25l-4.12-.89c-3.47-.77-8.26-1.87-13.53-3.12s-10.07-2.36-13.49-3.36c-1.71-.5-3.08-1-4-1.31a8,8,0,0,1-1.42-.61,11.62,11.62,0,0,1,1.49.42c1,.29,2.32.7,4,1.15,3.43.9,8.23,1.94,13.51,3.2s10.05,2.41,13.5,3.27l4.07,1.05A9.87,9.87,0,0,1,194.05,314.08Z" style="fill: rgb(255, 255, 255); transform-origin: 175.01px 309.31px;" id="elshr9mpo1vsc" class="animable"></path><path d="M331.23,323.43l-.26,0-.78,0-3,.07c-2.61.06-6.39.11-11.06.14-9.33.05-22.23,0-36.47-.49s-27.13-1.13-36.44-1.76c-4.66-.31-8.43-.59-11-.81l-3-.26-.77-.08a.84.84,0,0,1-.27-.05h.27l.78,0,3,.16,11,.65c9.32.52,22.2,1.16,36.43,1.6s27.13.59,36.46.64l11.06,0,3,0,.79,0Z" style="fill: rgb(255, 255, 255); transform-origin: 279.705px 321.923px;" id="elvesb13mn8h" class="animable"></path><path d="M250.94,353a3.8,3.8,0,0,1-1,.2c-.66.11-1.62.21-2.81.3a56.14,56.14,0,0,1-9.3-.08,57.15,57.15,0,0,1-9.17-1.57c-1.15-.3-2.08-.58-2.71-.8a4,4,0,0,1-1-.38c0-.08,1.44.31,3.75.82a75.48,75.48,0,0,0,9.14,1.42,76.25,76.25,0,0,0,9.23.23C249.47,353.07,250.93,352.94,250.94,353Z" style="fill: rgb(255, 255, 255); transform-origin: 237.945px 352.157px;" id="elbaa0x8cs3k" class="animable"></path><path d="M326,357.59a1.82,1.82,0,0,1-.55,0l-1.57-.13-5.75-.6c-4.86-.54-11.56-1.36-18.94-2.36s-14.06-2-18.88-2.8l-5.7-1-1.55-.29a3,3,0,0,1-.53-.13,1.91,1.91,0,0,1,.55,0l1.56.19,5.73.8L299.26,354l18.91,2.51,5.73.77,1.56.23A3.74,3.74,0,0,1,326,357.59Z" style="fill: rgb(255, 255, 255); transform-origin: 299.265px 353.936px;" id="elpw78v996ays" class="animable"></path><path d="M325,389.82h-.27l-.79-.05-3-.24c-2.64-.22-6.46-.58-11.18-1.06-9.43-.93-22.44-2.42-36.83-3.82-7.19-.68-14.06-1.24-20.31-1.67s-11.88-.67-16.62-.79c-2.36-.09-4.51-.09-6.39-.12s-3.5,0-4.82,0h-3l-.8,0a.8.8,0,0,1-.27,0l.27,0,.79,0,3.05-.09c1.33-.05,2.95-.08,4.83-.07s4,0,6.4.05c4.74.06,10.38.31,16.64.67s13.13.95,20.33,1.63c14.4,1.4,27.4,2.95,36.82,4l11.16,1.21,3,.34.79.1C324.87,389.79,325,389.81,325,389.82Z" style="fill: rgb(255, 255, 255); transform-origin: 272.86px 385.909px;" id="elgdbici21pww" class="animable"></path><path d="M337.61,452.48a1.49,1.49,0,0,1-.37,0l-1.09-.09L332,452c-3.65-.34-8.92-.82-15.45-1.3-13.06-1-31.13-1.92-51.1-2.25-10-.19-19.51-.12-28.18-.28s-16.46-.6-23-1.37A122.76,122.76,0,0,1,199,444.13c-1.79-.4-3.15-.82-4.08-1.07l-1-.31-.36-.12a1.41,1.41,0,0,1,.37.07l1.07.25c.94.23,2.3.62,4.1,1a132.6,132.6,0,0,0,15.28,2.48c6.5.71,14.29,1.12,22.94,1.25s18.18,0,28.18.24c20,.33,38.06,1.33,51.12,2.4,6.52.53,11.8,1.06,15.44,1.47l4.19.5,1.08.15A1.74,1.74,0,0,1,337.61,452.48Z" style="fill: rgb(255, 255, 255); transform-origin: 265.585px 447.561px;" id="els322p8j243" class="animable"></path><path d="M299.36,428.69a.75.75,0,0,1-.26,0l-.73-.09-2.82-.39-10.36-1.54c-4.38-.59-9.61-1.14-15.44-1.57s-12.24-.72-19-.9c-13.48-.32-25.7-.22-34.54-.28l-10.48-.08-2.84,0-.74,0a.79.79,0,0,1-.25,0l.25,0,.74,0,2.84-.05,10.48-.09c8.84,0,21.06-.19,34.56.13,6.74.18,13.17.49,19,.94s11.07,1.05,15.45,1.68L295.58,428l2.8.49.73.14Z" style="fill: rgb(255, 255, 255); transform-origin: 250.63px 426.173px;" id="elnwft5ctvoh" class="animable"></path><path d="M313.5,290.53c-5.4-20.7-8.06-42-10.71-63.24l-10,15.17c-1.17,15.08,4.19,29.92,4.64,45,.39,13.14-2.93,26.08-6.23,38.82a10.47,10.47,0,0,0,8.66-6.54,22.71,22.71,0,0,1-2.36,13.13c4.43,1,8.84-1.88,11.84-5.28a30.09,30.09,0,0,0,7.4-19.3C316.79,302.28,315,296.39,313.5,290.53Z" style="fill: rgb(0, 255, 136); transform-origin: 303.971px 280.181px;" id="elngyzvjyvldr" class="animable"></path><path d="M262.64,381.62l2,6s5.68,1.2,6.58,3,3.59,13.47,3.59,13.47l-37.4,9.57-4.19-10.77,2.1-5.23-1.85-6.49S249.91,382.05,262.64,381.62Z" style="fill: rgb(69, 90, 100); transform-origin: 254.015px 397.64px;" id="el6vemw2pwabs" class="animable"></path><path d="M264.65,387.6c0,.1-1.69.43-4.42,1.09s-6.47,1.66-10.54,3-7.7,2.72-10.29,3.78a43.56,43.56,0,0,1-4.23,1.7,5,5,0,0,1,1.06-.63c.69-.38,1.71-.88,3-1.46a101.14,101.14,0,0,1,20.91-6.8c1.38-.28,2.5-.46,3.29-.56A5.06,5.06,0,0,1,264.65,387.6Z" style="fill: rgb(38, 50, 56); transform-origin: 249.91px 392.384px;" id="elzkza4mrngda" class="animable"></path><path d="M264.26,386.19c0,.09-1.69.42-4.42,1.08s-6.47,1.66-10.54,3S241.61,393,239,394s-4.18,1.78-4.22,1.7a4.6,4.6,0,0,1,1.05-.64c.69-.37,1.71-.87,3-1.46a98.58,98.58,0,0,1,10.27-4,94,94,0,0,1,10.64-2.82c1.38-.29,2.51-.46,3.29-.57A4.67,4.67,0,0,1,264.26,386.19Z" style="fill: rgb(38, 50, 56); transform-origin: 249.52px 390.932px;" id="elxal98mgufbk" class="animable"></path><path d="M263.87,384.77c0,.1-1.69.43-4.42,1.09s-6.47,1.66-10.54,3-7.69,2.72-10.29,3.79-4.18,1.78-4.22,1.69a4.41,4.41,0,0,1,1-.63c.69-.38,1.72-.88,3-1.46a98.58,98.58,0,0,1,10.27-4,96.58,96.58,0,0,1,10.64-2.83c1.38-.28,2.51-.46,3.29-.56A5.06,5.06,0,0,1,263.87,384.77Z" style="fill: rgb(38, 50, 56); transform-origin: 249.135px 389.555px;" id="el6r7ait3yy0d" class="animable"></path><path d="M263.17,383.2c0,.09-1.68.42-4.38,1.09s-6.4,1.7-10.43,3.06-7.6,2.79-10.17,3.86-4.14,1.78-4.18,1.7a4.46,4.46,0,0,1,1-.63c.69-.38,1.7-.88,3-1.47a102.18,102.18,0,0,1,10.15-4,90.18,90.18,0,0,1,10.53-2.91c1.37-.28,2.48-.46,3.26-.57A4.11,4.11,0,0,1,263.17,383.2Z" style="fill: rgb(38, 50, 56); transform-origin: 248.59px 388.056px;" id="el52kqo5s9gy4" class="animable"></path><polygon points="247.65 397.63 250.4 404.69 269.05 398.79 265.84 390.96 247.65 397.63" style="fill: rgb(224, 224, 224); transform-origin: 258.35px 397.825px;" id="el3snpdah1ycq" class="animable"></polygon><path d="M274.49,383.81s7.09-1.46,10.12,1.67,10,9.64,10,9.64l-10,18.14H281s-2.08,3.1-3.54,3.73l-2.93,5-8.13,4.8-20.87,1-14-9.18-4.17-11.9s.42-.41,2.09.42l-.42-5s4.17-2.5,7.09,1.25l-.83-5.21s2.5-2.09,7.51,2.92l12.94,6.05,12.51-3.34,4.61-6.37s-9.55,5.12-11.88,3.24-2.95-6.26-2.95-6.26S270.31,384.14,274.49,383.81Z" style="fill: rgb(255, 190, 157); transform-origin: 260.985px 405.63px;" id="elda94co5nxpd" class="animable"></path><path d="M280.56,392.94c0,.09-1,.54-2.65,1.46s-3.77,2.36-6.26,3.81a20.37,20.37,0,0,1-6.9,2.65,10.44,10.44,0,0,1-2.25.11,2.13,2.13,0,0,1-.82-.15c0-.11,1.18,0,3-.39a23.17,23.17,0,0,0,6.67-2.75c2.46-1.43,4.65-2.84,6.36-3.66A9.55,9.55,0,0,1,280.56,392.94Z" style="fill: rgb(235, 153, 110); transform-origin: 271.12px 396.964px;" id="elpnwxauftcb" class="animable"></path><path d="M264.55,414.75a11.18,11.18,0,0,1-1.3.24,23.7,23.7,0,0,0-3.42,1.1,10.2,10.2,0,0,1-5.38.84,11.21,11.21,0,0,1-3-1.22l-3-1.61L242.68,411a18.06,18.06,0,0,1-4.53-3,9.34,9.34,0,0,1-1.78-3.21,5,5,0,0,1-.35-1.29,7.1,7.1,0,0,1,.58,1.2,9.81,9.81,0,0,0,1.86,3,18.68,18.68,0,0,0,4.49,2.78l5.79,3.1,3,1.63a11.39,11.39,0,0,0,2.83,1.2,10.08,10.08,0,0,0,5.12-.7,19,19,0,0,1,3.52-.93A3.58,3.58,0,0,1,264.55,414.75Z" style="fill: rgb(235, 153, 110); transform-origin: 250.285px 410.249px;" id="elisxm1c58vs" class="animable"></path><path d="M262,422a13.32,13.32,0,0,1-1.51.1,29.91,29.91,0,0,0-4.06.72,17.56,17.56,0,0,1-6.18.6c-2.44-.31-4.6-1.93-6.8-3.38l-6.26-4.19a54,54,0,0,1-5-3.6,9.22,9.22,0,0,1-2.3-3.5,5.11,5.11,0,0,1-.46-1.46,11.29,11.29,0,0,1,.67,1.36,10.11,10.11,0,0,0,2.38,3.28c1.3,1.11,3.13,2.15,5.05,3.45l6.28,4.15c2.22,1.47,4.3,3,6.55,3.33a17.86,17.86,0,0,0,6-.47,24.33,24.33,0,0,1,4.14-.53,7.91,7.91,0,0,1,1.13.06C261.88,422,262,422,262,422Z" style="fill: rgb(235, 153, 110); transform-origin: 245.715px 415.384px;" id="elppzfqhs117" class="animable"></path><path d="M284.46,406.05a10.94,10.94,0,0,1-1.21,2.49c-.83,1.5-2,3.52-3.46,5.71s-2.78,4.12-3.81,5.48a11.35,11.35,0,0,1-1.78,2.12,13.28,13.28,0,0,1,1.43-2.37l3.65-5.56,3.6-5.6A14.2,14.2,0,0,1,284.46,406.05Z" style="fill: rgb(235, 153, 110); transform-origin: 279.33px 413.95px;" id="elayevmgu1o6f" class="animable"></path><path d="M192.32,219,173,247.66a3.53,3.53,0,0,0,.71,4.73h0a3.54,3.54,0,0,0,5.15-.74l19.55-28.39Z" style="fill: rgb(38, 50, 56); transform-origin: 185.401px 236.092px;" id="elogzlfks9i4f" class="animable"></path><path d="M202.35,283.13s-5-10.24-7.74-14.5S185,263,185,263l-8.89-20.86A3,3,0,0,1,176,240l3.41-10.28,5.51-6.16,2-1.09,1.36.82c2.17,4.05-2.63,9.74-2.63,9.74.07,1.09-1.35,7.72-1.35,7.72l2.58,6.29a31.44,31.44,0,0,0-.48-4.6c-.47-2.91.26-8.87.26-8.87l8.19-5.82s6.43,0,8.86,1.41.82,3,.82,3a36.86,36.86,0,0,1,4.87.81c3,.67,1.9,1.62,2,3.45s-6.9,3.05-6.9,3.05l.35,5.55,1.42.61s1.48-4.54,2-5.82,3.65-1.9,3.65-1.9,1,.4,3.19,1.08a3.06,3.06,0,0,1,2,3,12,12,0,0,1,.28,3.79c-.21,2-2.24,1.09-2.24,1.09,1.36.81,2.69,4.24,2.69,4.24,5.53,2.83,9,9.29,9,9.29s2.22,11.19,2.07,14.66-2.51,9.46-2.51,9.46" style="fill: rgb(255, 190, 157); transform-origin: 202.385px 253.495px;" id="elim1kpb3j9j" class="animable"></path><path d="M193.69,263a4.29,4.29,0,0,1-2.16-.85,7.15,7.15,0,0,1-1.85-1.75,6.07,6.07,0,0,1-1.17-2.92,8.07,8.07,0,0,1,.37-3.1,12.19,12.19,0,0,0,.5-2.39,5.91,5.91,0,0,0-.3-2.2,2.86,2.86,0,0,1,.67,2.21,11.22,11.22,0,0,1-.4,2.5,8.06,8.06,0,0,0-.32,2.92,6.66,6.66,0,0,0,2.71,4.43C192.86,262.71,193.72,262.94,193.69,263Z" style="fill: rgb(235, 153, 110); transform-origin: 191.089px 256.395px;" id="el34xdwzan5ca" class="animable"></path><path d="M199.31,260.06a5.53,5.53,0,0,1-2.49-2.11,4.46,4.46,0,0,1-.81-2.2c0-.62.1-1,.17-1s.07.37.19.91a5.8,5.8,0,0,0,.88,2C198.24,259,199.43,259.92,199.31,260.06Z" style="fill: rgb(235, 153, 110); transform-origin: 197.664px 257.405px;" id="elht7gnlzz62" class="animable"></path><path d="M208.38,256c0,.06-.5-.11-1.21-.54a5.51,5.51,0,0,1-2.21-2.35,5.07,5.07,0,0,1-.16-3.23c.19-.79.4-1.25.46-1.23s0,.51-.1,1.3a5.47,5.47,0,0,0,.28,3,6.24,6.24,0,0,0,1.94,2.26C208,255.62,208.42,255.9,208.38,256Z" style="fill: rgb(235, 153, 110); transform-origin: 206.496px 252.331px;" id="ellcziukbgm1" class="animable"></path><path d="M205.26,232.12a2.34,2.34,0,0,1-.94.28,15.71,15.71,0,0,1-2.66.15,10,10,0,0,0-3.78.51,3.79,3.79,0,0,0-1.71,1.29,4.63,4.63,0,0,0-.71,2.22c-.15,3.33-.29,6.34-.4,8.7-.06,1.12-.12,2-.17,2.65a3.08,3.08,0,0,1-.14,1,4.11,4.11,0,0,1-.06-1c0-.63,0-1.53,0-2.65.05-2.24.07-5.3.25-8.74a5,5,0,0,1,.82-2.46,4.13,4.13,0,0,1,2-1.44,9.69,9.69,0,0,1,4-.44,23.5,23.5,0,0,0,2.63,0A6,6,0,0,1,205.26,232.12Z" style="fill: rgb(235, 153, 110); transform-origin: 199.971px 240.52px;" id="elklpgo62je7i" class="animable"></path><path d="M204.36,240.78a14.61,14.61,0,0,0-.38-2.5,13.62,13.62,0,0,0-1.25-2.21c.05-.13,1.24.54,1.74,2A2.9,2.9,0,0,1,204.36,240.78Z" style="fill: rgb(235, 153, 110); transform-origin: 203.742px 238.417px;" id="elcwc9m3yrf56" class="animable"></path><path d="M214.83,242.41s.34.09.56.54a4.24,4.24,0,0,1,.33,1.79,4.51,4.51,0,0,1-.38,2.48,9.82,9.82,0,0,1-.14-2.47,8.07,8.07,0,0,0-.15-1.67C215,242.68,214.78,242.47,214.83,242.41Z" style="fill: rgb(235, 153, 110); transform-origin: 215.29px 244.815px;" id="elwj7wuaimaen" class="animable"></path><path d="M192.32,219l1.75-2.33a2,2,0,0,1,1.68-2.62l8.7-13.65L211.9,206l-10,12.06s.74,2.47-1.88,2.34l-1.55,2.91Z" style="fill: rgb(224, 224, 224); transform-origin: 202.11px 211.855px;" id="el1nuvmzzpnhz" class="animable"></path><path d="M194.58,216.3c-.11,0-.42-.43-.12-1.06a.87.87,0,0,1,.68-.48c.22,0,.34.07.33.14s-.37.23-.55.58S194.73,216.27,194.58,216.3Z" style="fill: rgb(255, 255, 255); transform-origin: 194.902px 215.53px;" id="elfb1tl46yin4" class="animable"></path><path d="M194.15,217.71c.1.1-.15.49-.47.92s-.63.78-.76.72,0-.55.34-1S194.06,217.6,194.15,217.71Z" style="fill: rgb(255, 255, 255); transform-origin: 193.521px 218.522px;" id="eltma3ydg9or" class="animable"></path><path d="M217.4,193.69a1.17,1.17,0,0,1-.5.64,1.85,1.85,0,0,0,0-1.44l-.61.53a2.2,2.2,0,0,0-.32-1.87,2.08,2.08,0,0,0-1.4-.46,18.5,18.5,0,0,0-3.49.12,6,6,0,0,0-1.71.42,5.1,5.1,0,0,0-1.22.84,7.31,7.31,0,0,0-2,3.11c-.55,1.7-.47,3.6-1.26,5.2l6.09,4.54a12,12,0,0,0,3.22-2.07,9.59,9.59,0,0,0,2.48-2.44,8.19,8.19,0,0,0,1-3.1A6.63,6.63,0,0,0,217.4,193.69Z" style="fill: rgb(69, 90, 100); transform-origin: 211.379px 198.188px;" id="elopbyz5pyjdk" class="animable"></path><path d="M217.4,193.69a1.17,1.17,0,0,1-.5.64,1.85,1.85,0,0,0,0-1.44l-.61.53a2.2,2.2,0,0,0-.32-1.87,2.08,2.08,0,0,0-1.4-.46,18.5,18.5,0,0,0-3.49.12,6,6,0,0,0-1.71.42,5.1,5.1,0,0,0-1.22.84,7.31,7.31,0,0,0-2,3.11c-.55,1.7-.47,3.6-1.26,5.2l5.9,4.54a13,13,0,0,0,3.41-2.07,9.59,9.59,0,0,0,2.48-2.44,8.19,8.19,0,0,0,1-3.1A6.63,6.63,0,0,0,217.4,193.69Z" style="fill: none; transform-origin: 211.379px 198.188px;" id="elmv8kq44orc7" class="animable"></path><path d="M212.12,193.53a16.63,16.63,0,0,0-2.63,2.29,17.11,17.11,0,0,0-1.7,3,4.72,4.72,0,0,1,1.3-3.36A4.77,4.77,0,0,1,212.12,193.53Z" style="fill: rgb(38, 50, 56); transform-origin: 209.954px 196.175px;" id="el538noh4fasd" class="animable"></path><path d="M212.55,199.9c.1.1-.68,1-1.74,2-.53.51-1,1-1.41,1.26s-.78.38-.77.29.22-.17.51-.56.78-.85,1.31-1.37A7.06,7.06,0,0,1,212.55,199.9Z" style="fill: rgb(38, 50, 56); transform-origin: 210.594px 201.69px;" id="eldawjsok8xsc" class="animable"></path><path d="M213.11,201.28c.09.11-.7.83-1.75,1.59a11.77,11.77,0,0,1-1.41.92c-.41.25-.78.13-.74.05s.25-.08.54-.35.78-.66,1.3-1C212.11,201.69,213,201.16,213.11,201.28Z" style="fill: rgb(38, 50, 56); transform-origin: 211.162px 202.602px;" id="elrz3i8zyw45n" class="animable"></path><path d="M201.87,218a12.59,12.59,0,0,1-3.17-1.71,13,13,0,0,1-2.88-2.14,24.93,24.93,0,0,1,6.05,3.85Z" style="fill: rgb(38, 50, 56); transform-origin: 198.845px 216.075px;" id="el2kf7ek3ge8t" class="animable"></path><path d="M200,220.35a9.58,9.58,0,0,1-3.1-1.6,16,16,0,0,1-2.82-2,9.58,9.58,0,0,1,3.1,1.6A16,16,0,0,1,200,220.35Z" style="fill: rgb(38, 50, 56); transform-origin: 197.04px 218.55px;" id="eli16izqqe1l" class="animable"></path><path d="M204.45,202.66a44.12,44.12,0,0,1-3.5,5.65,42.75,42.75,0,0,1-3.93,5.35,42.79,42.79,0,0,1,3.5-5.65A41,41,0,0,1,204.45,202.66Z" style="fill: rgb(255, 255, 255); transform-origin: 200.735px 208.16px;" id="elnjbxlyl1nim" class="animable"></path></g><g id="freepik--Creams--inject-100" class="animable animator-hidden" style="transform-origin: 95.35px 456.02px;"><rect x="55.87" y="448.87" width="35.99" height="20.3" style="fill: rgb(69, 90, 100); transform-origin: 73.865px 459.02px;" id="eltsi9azsxe1" class="animable"></rect><rect x="70.2" y="456.92" width="21.66" height="7.13" style="fill: rgb(255, 255, 255); transform-origin: 81.03px 460.485px;" id="elx91z36rkhh" class="animable"></rect><rect x="55.87" y="442.87" width="35.99" height="6" style="fill: rgb(38, 50, 56); transform-origin: 73.865px 445.87px;" id="eltt0z245itd" class="animable"></rect><rect x="98.83" y="448.87" width="35.99" height="20.3" style="fill: rgb(0, 255, 136); transform-origin: 116.825px 459.02px;" id="elk5ckeg9y0vc" class="animable"></rect><rect x="113.17" y="456.92" width="21.66" height="7.13" style="fill: rgb(255, 255, 255); transform-origin: 124px 460.485px;" id="el05a6lfk0yov2" class="animable"></rect><rect x="98.83" y="442.87" width="35.99" height="6" style="fill: rgb(38, 50, 56); transform-origin: 116.825px 445.87px;" id="el6hgbrr2zby6" class="animable"></rect></g><g id="freepik--Mirror--inject-100" class="animable" style="transform-origin: 99.0675px 251.056px;"><path d="M105.55,297.94a3.59,3.59,0,0,0-4.7,1.92L86.92,333.15a3.59,3.59,0,0,0,6.62,2.77l13.93-33.29A3.59,3.59,0,0,0,105.55,297.94ZM91.83,334.31l-2.57-1.07,12.93-30.88,2.56,1.07Z" style="fill: rgb(224, 224, 224); transform-origin: 97.2159px 317.838px;" id="eljardoin4w9" class="animable"></path><path d="M105.55,297.94a3.59,3.59,0,0,0-4.7,1.92L86.92,333.15a3.59,3.59,0,0,0,6.62,2.77l13.93-33.29A3.59,3.59,0,0,0,105.55,297.94ZM91.83,334.31l-2.57-1.07,12.93-30.88,2.56,1.07Z" style="fill: none; transform-origin: 97.2159px 317.838px;" id="elndkaql9r71p" class="animable"></path><path d="M91.83,334.31a4.93,4.93,0,0,1,.23-.66c.19-.46.43-1.06.73-1.82l2.68-6.62c2.28-5.58,5.45-13.28,9-21.88l.14.34-2.56-1.07c.68-.28.18-.07.33-.13h0v0l0,0,0,.08-.07.17-.14.32-.27.65-.54,1.29c-.35.85-.71,1.69-1.06,2.53q-1.05,2.51-2,4.87l-3.71,8.78c-2.26,5.26-4,9.45-5.17,12l0-.13c.77.35,1.39.62,1.85.84l.68.32a3.78,3.78,0,0,1-.66-.22l-2-.76-.09,0,0-.1c1.07-2.62,2.79-6.83,5-12.14,1.12-2.69,2.34-5.64,3.65-8.8l2-4.88c.34-.83.7-1.68,1-2.53l.54-1.29.27-.65.14-.33.07-.16,0-.08,0,0v0h0c.16-.07-.34.13.35-.15l2.56,1.07.24.11-.1.23c-3.64,8.7-6.94,16.44-9.31,22-1.18,2.72-2.13,4.93-2.81,6.51l-.77,1.73A4.38,4.38,0,0,1,91.83,334.31Z" style="fill: rgb(38, 50, 56); transform-origin: 97.11px 318.205px;" id="el1sfazzzdf1v" class="animable"></path><path d="M105.55,297.94a2.54,2.54,0,0,1,.85.45,3.52,3.52,0,0,1,1.41,2.36,3.71,3.71,0,0,1-.26,2l-.89,2.19c-.65,1.58-1.39,3.37-2.2,5.35-1.65,4-3.6,8.68-5.76,13.9l-3.42,8.21-.9,2.15a14.26,14.26,0,0,1-1,2.19,3.79,3.79,0,0,1-2.06,1.47,3.88,3.88,0,0,1-2.56-.14,3.84,3.84,0,0,1-2.3-4.22,14.45,14.45,0,0,1,.85-2.27l.9-2.15,3.45-8.19c2.2-5.21,4.19-9.9,5.86-13.86l2.27-5.32c.33-.78.65-1.51.94-2.18a3.71,3.71,0,0,1,1.25-1.6,3.58,3.58,0,0,1,2.67-.65,2.64,2.64,0,0,1,.92.3s-.32-.12-.94-.19a3.49,3.49,0,0,0-2.53.71c-1,.66-1.36,2.17-2,3.72s-1.39,3.37-2.2,5.35c-1.64,4-3.59,8.68-5.76,13.9l-3.42,8.21c-.29.71-.59,1.43-.9,2.15A15.48,15.48,0,0,0,87,334a3.32,3.32,0,0,0,6,2.5,14.9,14.9,0,0,0,1-2.09l.9-2.15L98.26,324c2.2-5.21,4.18-9.9,5.86-13.86l2.27-5.32c.62-1.58,1.45-2.88,1.22-4.07a3.52,3.52,0,0,0-1.27-2.3C105.85,298.08,105.53,298,105.55,297.94Z" style="fill: rgb(38, 50, 56); transform-origin: 97.1247px 317.975px;" id="elpr4gfciu8a" class="animable"></path><path d="M76.07,297.94a3.59,3.59,0,0,0-4.7,1.92L57.44,333.15a3.59,3.59,0,0,0,6.62,2.77L78,302.63A3.59,3.59,0,0,0,76.07,297.94ZM62.35,334.31l-2.57-1.07,12.93-30.88,2.56,1.07Z" style="fill: rgb(224, 224, 224); transform-origin: 67.7402px 317.838px;" id="elgbmzbvgj244" class="animable"></path><path d="M76.07,297.94a3.59,3.59,0,0,0-4.7,1.92L57.44,333.15a3.59,3.59,0,0,0,6.62,2.77L78,302.63A3.59,3.59,0,0,0,76.07,297.94ZM62.35,334.31l-2.57-1.07,12.93-30.88,2.56,1.07Z" style="fill: none; transform-origin: 67.7402px 317.838px;" id="ela6nf1vtl9h6" class="animable"></path><path d="M62.35,334.31a4.38,4.38,0,0,1,.24-.66l.72-1.82L66,325.21c2.28-5.58,5.45-13.28,9-21.88l.14.34-2.56-1.07c.68-.28.18-.07.33-.13h0v0l0,0,0,.08-.07.17-.13.32-.28.65-.54,1.29c-.35.85-.71,1.69-1.06,2.53q-1,2.51-2,4.87c-1.33,3.15-2.57,6.1-3.71,8.78-2.26,5.26-4.05,9.45-5.17,12l0-.13,1.86.84.67.32a3.58,3.58,0,0,1-.65-.22l-2-.76-.09,0,0-.1,5-12.14c1.11-2.69,2.34-5.64,3.64-8.8l2-4.88,1.06-2.53c.17-.43.35-.86.53-1.29l.28-.65.13-.33.07-.16,0-.08,0,0v0h0c.16-.07-.33.13.35-.15l2.56,1.07.24.11-.1.23c-3.64,8.7-6.94,16.44-9.31,22-1.18,2.72-2.13,4.93-2.81,6.51l-.77,1.73A4.38,4.38,0,0,1,62.35,334.31Z" style="fill: rgb(38, 50, 56); transform-origin: 67.67px 318.205px;" id="elifbny64d4hr" class="animable"></path><path d="M76.07,297.94a2.54,2.54,0,0,1,.85.45,3.52,3.52,0,0,1,1.41,2.36,3.71,3.71,0,0,1-.26,2L77.18,305c-.65,1.58-1.39,3.37-2.2,5.35-1.65,4-3.6,8.68-5.76,13.9l-3.42,8.21c-.29.71-.59,1.43-.9,2.15a14.26,14.26,0,0,1-1,2.19,3.79,3.79,0,0,1-2.06,1.47,3.88,3.88,0,0,1-2.56-.14,3.84,3.84,0,0,1-2.3-4.22,14.45,14.45,0,0,1,.85-2.27l.9-2.15,3.45-8.19c2.2-5.21,4.19-9.9,5.86-13.86l2.27-5.32.94-2.18a3.71,3.71,0,0,1,1.25-1.6,3.58,3.58,0,0,1,2.67-.65,2.64,2.64,0,0,1,.92.3s-.32-.12-.94-.19a3.49,3.49,0,0,0-2.53.71c-1,.66-1.36,2.17-2,3.72s-1.39,3.37-2.2,5.35c-1.64,4-3.59,8.68-5.76,13.9l-3.42,8.21c-.29.71-.59,1.43-.9,2.15a15.48,15.48,0,0,0-.81,2.16,3.33,3.33,0,0,0,6,2.5,14.9,14.9,0,0,0,1-2.09l.9-2.15L68.78,324c2.2-5.21,4.19-9.9,5.86-13.86l2.27-5.32c.62-1.58,1.45-2.88,1.22-4.07a3.52,3.52,0,0,0-1.27-2.3C76.37,298.08,76.05,298,76.07,297.94Z" style="fill: rgb(38, 50, 56); transform-origin: 67.6447px 318.035px;" id="eliwavh68nh" class="animable"></path><path d="M46.7,298.39A3.57,3.57,0,0,0,42,300.31L28.07,333.59a3.59,3.59,0,1,0,6.62,2.77l13.93-33.28A3.57,3.57,0,0,0,46.7,298.39ZM33,334.76l-2.57-1.07,12.93-30.88,2.57,1.07Z" style="fill: rgb(224, 224, 224); transform-origin: 38.3237px 318.388px;" id="el4hkqefinu2u" class="animable"></path><path d="M46.7,298.39A3.57,3.57,0,0,0,42,300.31L28.07,333.59a3.59,3.59,0,1,0,6.62,2.77l13.93-33.28A3.57,3.57,0,0,0,46.7,298.39ZM33,334.76l-2.57-1.07,12.93-30.88,2.57,1.07Z" style="fill: none; transform-origin: 38.3237px 318.388px;" id="elzdsaeljr2r" class="animable"></path><path d="M33,334.76a6.5,6.5,0,0,1,.24-.66l.72-1.82c.65-1.61,1.57-3.85,2.69-6.62,2.28-5.58,5.44-13.28,9-21.88l.14.34-2.57-1.07c.68-.28.19-.07.34-.13h0v0l0,0,0,.08-.06.16-.14.33-.27.65-.54,1.28L41.44,308c-.71,1.66-1.39,3.29-2,4.87l-3.71,8.77c-2.26,5.27-4.06,9.46-5.17,12.06l-.06-.13,1.86.83c.43.2.66.32.67.33a4.32,4.32,0,0,1-.65-.22l-1.95-.76-.1,0,0-.09c1.07-2.62,2.79-6.84,5-12.14,1.11-2.69,2.34-5.65,3.65-8.8q1-2.37,2-4.88L42,305.29l.54-1.28.27-.65L43,303l.06-.16,0-.08v-.06h0c.15-.07-.34.13.34-.15L46,303.64l.24.1-.1.24c-3.65,8.7-6.95,16.44-9.32,22L34,332.46l-.76,1.73A3.47,3.47,0,0,1,33,334.76Z" style="fill: rgb(38, 50, 56); transform-origin: 38.285px 318.655px;" id="el7xsr4r1hnlt" class="animable"></path><path d="M46.7,298.39a2.58,2.58,0,0,1,.86.44A3.65,3.65,0,0,1,49,301.19a3.8,3.8,0,0,1-.26,2l-.9,2.2c-.65,1.58-1.38,3.37-2.2,5.35-1.64,4-3.59,8.68-5.76,13.9l-3.41,8.21c-.3.71-.6,1.42-.9,2.15a14.26,14.26,0,0,1-1,2.19,3.84,3.84,0,0,1-6.52-.39,3.83,3.83,0,0,1-.4-2.5,15.51,15.51,0,0,1,.84-2.27c.31-.72.61-1.44.91-2.15l3.44-8.19c2.21-5.21,4.19-9.91,5.87-13.87l2.26-5.31.94-2.18a3.73,3.73,0,0,1,1.25-1.6,3.59,3.59,0,0,1,2.67-.65,2.64,2.64,0,0,1,.92.3s-.32-.12-.93-.2a3.6,3.6,0,0,0-2.54.71c-1,.67-1.35,2.18-2,3.73L39,308c-1.65,4-3.6,8.68-5.76,13.9-1.09,2.62-2.24,5.36-3.42,8.21l-.9,2.15a13.31,13.31,0,0,0-.81,2.16,3.32,3.32,0,0,0,6,2.5,13.85,13.85,0,0,0,1-2.09c.31-.72.61-1.44.91-2.15l3.44-8.19,5.86-13.86,2.27-5.32c.63-1.58,1.46-2.88,1.22-4.07a3.48,3.48,0,0,0-1.27-2.3A6.76,6.76,0,0,0,46.7,298.39Z" style="fill: rgb(38, 50, 56); transform-origin: 38.3131px 318.428px;" id="eldjdeqfcltb4" class="animable"></path><path d="M43.48,298.93a3.58,3.58,0,0,0-1.63,4.8l15.92,32.38a3.59,3.59,0,0,0,6.44-3.17L48.29,300.57A3.6,3.6,0,0,0,43.48,298.93Zm18.4,34.25-2.5,1.23-14.77-30,2.49-1.23Z" style="fill: rgb(224, 224, 224); transform-origin: 53.0104px 318.301px;" id="elx6gxxjyd1os" class="animable"></path><path d="M102.33,298.48a3.59,3.59,0,0,0-1.64,4.8l15.93,32.38a3.58,3.58,0,1,0,6.43-3.17l-15.92-32.37A3.59,3.59,0,0,0,102.33,298.48Zm18.39,34.25L118.23,334l-14.78-30,2.5-1.23Z" style="fill: rgb(224, 224, 224); transform-origin: 111.873px 317.889px;" id="elq75vhjqh0ob" class="animable"></path><path d="M72.85,298.48a3.59,3.59,0,0,0-1.64,4.8l15.93,32.38a3.59,3.59,0,1,0,6.44-3.17L77.65,300.12A3.59,3.59,0,0,0,72.85,298.48Zm18.39,34.25L88.75,334,74,303.92l2.5-1.23Z" style="fill: rgb(224, 224, 224); transform-origin: 82.4162px 317.928px;" id="eloqhf8sshkze" class="animable"></path><path d="M149.75,216.41c7.67,27.83.15,53.14-18,59.41-31.88,11-55.94-10.24-63.61-38.07s7.2-60.62,33.47-63.1C125.07,172.42,142.08,188.58,149.75,216.41Z" style="fill: rgb(38, 50, 56); transform-origin: 109.428px 226.611px;" id="el3qaqbho0rqk" class="animable"></path><g id="elrt4yogtur6"><ellipse cx="115.45" cy="225.04" rx="42.75" ry="52.27" style="fill: rgb(235, 235, 235); transform-origin: 115.45px 225.04px; transform: rotate(-15.4deg);" class="animable"></ellipse></g><g id="eload1yyrcb0q"><ellipse cx="115.45" cy="225.04" rx="36.67" ry="44.84" style="fill: rgb(250, 250, 250); transform-origin: 115.45px 225.04px; transform: rotate(-15.4deg);" class="animable"></ellipse></g><rect x="117.92" y="284.09" width="7.29" height="53.86" style="fill: rgb(38, 50, 56); transform-origin: 121.565px 311.02px;" id="el40up86xnbm4" class="animable"></rect><path d="M158.31,222.86s.05.14.12.42.18.72.31,1.26.3,1.24.49,2,.43,1.74.59,2.81.4,2.25.62,3.55.32,2.72.5,4.25.17,3.17.28,4.91c0,.87,0,1.77-.05,2.69a27.35,27.35,0,0,1-.14,2.83c-.1,1-.2,1.95-.31,3l-.56,3a41.87,41.87,0,0,1-1.89,6.32,13.74,13.74,0,0,1-.67,1.59c-.25.52-.49,1-.74,1.59-.54,1.05-1.16,2.07-1.78,3.12L154,267.76l-.53.76-.6.72-1.21,1.45-1.33,1.37a40.56,40.56,0,0,1-13.43,8.7,49.72,49.72,0,0,1-8.12,2.52,42.36,42.36,0,0,1-8.68,1.12A59.64,59.64,0,0,1,103,282.91a43.05,43.05,0,0,1-14.6-6.56,41.63,41.63,0,0,1-10.2-10.29,53.18,53.18,0,0,1-5.9-11.19A70.07,70.07,0,0,1,68,237.11c-.23-2.15-.31-3.83-.34-5q0-.85,0-1.29a3.72,3.72,0,0,1,0-.44,2.5,2.5,0,0,1,0,.44l.06,1.29c.06,1.13.17,2.8.43,4.94a72.42,72.42,0,0,0,4.38,17.66,53.68,53.68,0,0,0,5.91,11.07A41.51,41.51,0,0,0,88.65,276a43,43,0,0,0,14.45,6.46,59.22,59.22,0,0,0,17,1.45,41.56,41.56,0,0,0,8.59-1.09,50.73,50.73,0,0,0,8-2.49A40.06,40.06,0,0,0,150,271.72l1.32-1.35,1.2-1.43.59-.71.53-.74,1-1.49c.62-1,1.24-2,1.77-3.07.25-.53.5-1.05.74-1.57a13.46,13.46,0,0,0,.67-1.57,42.2,42.2,0,0,0,1.9-6.24c.19-1,.39-2,.57-3s.22-2,.32-2.93a27.24,27.24,0,0,0,.16-2.81c0-.92.1-1.81.06-2.68-.09-1.73-.06-3.37-.23-4.89s-.27-2.94-.45-4.24-.4-2.48-.58-3.54-.37-2-.54-2.81-.32-1.5-.44-2.06-.2-1-.26-1.27A2,2,0,0,1,158.31,222.86Z" style="fill: rgb(38, 50, 56); transform-origin: 114.437px 253.679px;" id="elwro282vu78" class="animable"></path><path d="M139,254.22a8.45,8.45,0,0,0-1.1-3.27c-1.31-1.95-3.88-2.51-6.19-2.93-5.81-1.06-12.33-2.79-15.09-8-2.55-4.83-.82-10.68-.33-16.12a34.84,34.84,0,0,0-11.43-28.77c-4.12-3.65-9.63-6.34-15-5.45l-1.15,1.18c-9.54,10.3-13.41,27.07-8.77,43.92,6.58,23.88,27.74,38.87,47.27,33.49a30.74,30.74,0,0,0,11.68-6.19C139.81,259.67,139.48,256.81,139,254.22Z" style="fill: rgb(235, 235, 235); transform-origin: 108.727px 229.436px;" id="elin35u43jtye" class="animable"></path><path d="M106.84,238.66a10.63,10.63,0,0,1,.41-1.75c.31-1.2.74-2.79,1.25-4.72,1-4,2.45-9.52,3.82-15.66s2.45-11.74,3.2-15.8c.35-2,.65-3.59.87-4.81a14.22,14.22,0,0,1,.37-1.76,10.21,10.21,0,0,1-.17,1.79c-.14,1.14-.39,2.8-.71,4.84-.65,4.08-1.68,9.7-3,15.85s-2.83,11.68-4,15.65c-.57,2-1,3.58-1.41,4.68A11.81,11.81,0,0,1,106.84,238.66Z" style="fill: rgb(38, 50, 56); transform-origin: 111.8px 216.41px;" id="elsyk3nulip7" class="animable"></path><path d="M110.17,247.3a9.57,9.57,0,0,1,.2-1.62c.17-1,.43-2.55.79-4.4.71-3.7,1.79-8.8,3.18-14.38s2.83-10.59,3.94-14.19c.56-1.8,1-3.26,1.37-4.25a9.27,9.27,0,0,1,.58-1.54,10.88,10.88,0,0,1-.39,1.6c-.31,1.1-.72,2.54-1.21,4.29-1,3.63-2.39,8.64-3.78,14.22s-2.53,10.65-3.33,14.33c-.39,1.77-.71,3.24-1,4.35A11.5,11.5,0,0,1,110.17,247.3Z" style="fill: rgb(38, 50, 56); transform-origin: 115.2px 227.11px;" id="elwjul284o32r" class="animable"></path><path d="M156.67,213.68s-.1-.24-.25-.73-.37-1.22-.69-2.16a65.87,65.87,0,0,0-3.31-8c-.81-1.7-1.86-3.53-3-5.49a63.93,63.93,0,0,0-4.37-6.07,52.17,52.17,0,0,0-13.71-11.83,40.11,40.11,0,0,0-21-5.75,35.54,35.54,0,0,0-12,2.37,33.5,33.5,0,0,0-5.73,2.83,35.45,35.45,0,0,0-5.28,3.93c-6.67,5.91-11.44,14.45-13.62,23.88A61.89,61.89,0,0,0,89,262.24c6.71,7,15.18,11.88,23.94,13.54a34.73,34.73,0,0,0,6.54.67,32.85,32.85,0,0,0,6.38-.5,35.53,35.53,0,0,0,11.49-4.1,40.06,40.06,0,0,0,15.07-15.68A52.24,52.24,0,0,0,158.17,239a59.74,59.74,0,0,0,.45-13.73,65.91,65.91,0,0,0-1.27-8.61c-.21-1-.41-1.7-.52-2.2s-.16-.76-.16-.76.08.25.21.75.34,1.22.57,2.19a62.51,62.51,0,0,1,1.37,8.61,59.1,59.1,0,0,1-.36,13.79,52.53,52.53,0,0,1-5.68,17.33,40.5,40.5,0,0,1-15.19,15.88A36,36,0,0,1,126,276.4a33.74,33.74,0,0,1-6.46.52,35.57,35.57,0,0,1-6.63-.66c-8.87-1.68-17.44-6.62-24.22-13.66a62.36,62.36,0,0,1-15.45-56.1c2.21-9.52,7-18.15,13.8-24.13a36.31,36.31,0,0,1,5.35-4,33.75,33.75,0,0,1,5.82-2.86,35.89,35.89,0,0,1,12.12-2.37A40.45,40.45,0,0,1,131.47,179a52.32,52.32,0,0,1,13.76,12,62.19,62.19,0,0,1,4.35,6.12,60.77,60.77,0,0,1,3,5.54,61.47,61.47,0,0,1,3.23,8.1c.31,1,.5,1.69.64,2.18S156.67,213.68,156.67,213.68Z" style="fill: rgb(38, 50, 56); transform-origin: 115.423px 225.032px;" id="el19k9ff2217h" class="animable"></path><path d="M150.81,215.3s-.09-.21-.23-.63-.35-1-.62-1.84a28.92,28.92,0,0,0-1.07-3c-.25-.57-.51-1.19-.79-1.85a19,19,0,0,0-1-2.08,46.68,46.68,0,0,0-2.64-4.7l-.81-1.28-.41-.65-.48-.64c-.65-.85-1.32-1.73-2-2.65A46,46,0,0,0,129,185.87a35.06,35.06,0,0,0-18-4.93c-.85.05-1.7.14-2.56.21-.42,0-.86.06-1.29.12l-1.28.27c-.85.19-1.73.33-2.58.58l-2.54.87a19.57,19.57,0,0,0-2.48,1.11,15,15,0,0,0-2.42,1.33c-.78.51-1.58,1-2.34,1.54l-2.19,1.81a37.8,37.8,0,0,0-7.29,9.09,46.72,46.72,0,0,0-4.39,11.37,53,53,0,0,0-1.25,12.58,54.08,54.08,0,0,0,6.87,24.94,53.34,53.34,0,0,0,7.51,10.16,46.93,46.93,0,0,0,9.6,7.52,37.61,37.61,0,0,0,10.92,4.08l2.81.43c.93.09,1.87.09,2.79.13a15.86,15.86,0,0,0,2.76-.1,18.74,18.74,0,0,0,2.71-.32l2.63-.55c.86-.22,1.68-.56,2.51-.82l1.24-.43c.4-.17.78-.37,1.17-.56.77-.38,1.55-.73,2.3-1.13a35.15,35.15,0,0,0,12.92-13.44A45.7,45.7,0,0,0,152.08,237c.13-1.14.25-2.24.37-3.31,0-.26.06-.52.08-.78s0-.53,0-.78c0-.52,0-1,0-1.51a46.29,46.29,0,0,0-.14-5.39,17.58,17.58,0,0,0-.23-2.28c-.1-.71-.19-1.37-.28-2a27.93,27.93,0,0,0-.59-3.1c-.18-.82-.32-1.46-.42-1.9s-.12-.65-.12-.65.07.21.18.64.26,1.07.46,1.89a26.92,26.92,0,0,1,.64,3.09c.1.62.2,1.29.3,2a17.33,17.33,0,0,1,.27,2.29,48.12,48.12,0,0,1,.18,5.4l0,1.52c0,.26,0,.52,0,.78s-.06.53-.08.8c-.11,1.07-.23,2.18-.35,3.33a45.85,45.85,0,0,1-4.88,14.86,35.37,35.37,0,0,1-13,13.65c-.76.4-1.54.76-2.33,1.15-.39.19-.78.39-1.18.57l-1.26.44c-.84.27-1.67.61-2.55.84l-2.67.56a19,19,0,0,1-2.74.33,16.36,16.36,0,0,1-2.8.11c-.94,0-1.89,0-2.84-.12l-2.85-.44a38.34,38.34,0,0,1-11.08-4.11,47.43,47.43,0,0,1-9.71-7.6A54.15,54.15,0,0,1,84.84,247a54.69,54.69,0,0,1-6.93-25.18,54,54,0,0,1,1.27-12.7,47.11,47.11,0,0,1,4.46-11.5,38.21,38.21,0,0,1,7.4-9.21l2.22-1.83c.78-.56,1.59-1,2.38-1.56a16.33,16.33,0,0,1,2.46-1.34,17.72,17.72,0,0,1,2.53-1.12l2.58-.89c.86-.25,1.75-.38,2.62-.58l1.3-.27c.43-.05.87-.08,1.31-.12.87-.06,1.73-.16,2.59-.2a35.27,35.27,0,0,1,18.18,5.05A46.18,46.18,0,0,1,141,195.82c.69.93,1.35,1.83,2,2.69l.47.64.42.66.8,1.29a47.46,47.46,0,0,1,2.61,4.74,19.08,19.08,0,0,1,1,2.1c.27.66.52,1.29.76,1.87a25,25,0,0,1,1,3q.38,1.2.57,1.86C150.76,215.08,150.81,215.3,150.81,215.3Z" style="fill: rgb(38, 50, 56); transform-origin: 115.347px 225.034px;" id="elmr213lxryw" class="animable"></path><path d="M43.48,298.93a3.58,3.58,0,0,0-1.63,4.8l15.92,32.38a3.59,3.59,0,0,0,6.44-3.17L48.29,300.57A3.6,3.6,0,0,0,43.48,298.93Zm18.4,34.25-2.5,1.23-14.77-30,2.49-1.23Z" style="fill: none; transform-origin: 53.0104px 318.301px;" id="elvd4e5vn4kh" class="animable"></path><path d="M61.88,333.18a5.1,5.1,0,0,1-.35-.62l-.89-1.74-3.22-6.37c-2.71-5.39-6.43-12.83-10.55-21.2l.35.12-2.5,1.23c.24-.69.07-.19.13-.34h0v0l0,0,0,.08.08.16.15.31.31.64.62,1.25,1.21,2.46c.79,1.63,1.57,3.21,2.32,4.75,1.5,3.07,2.9,5.95,4.18,8.56,2.48,5.17,4.46,9.27,5.68,11.82l-.13,0,1.85-.85a5.8,5.8,0,0,1,.69-.29s-.19.12-.6.34l-1.85,1-.09,0-.05-.09c-1.27-2.53-3.31-6.6-5.89-11.72l-4.23-8.53-2.34-4.74L45.61,307,45,305.74l-.32-.63-.15-.31-.08-.16,0-.08,0,0v0h0c0-.16-.13.34.11-.36l2.5-1.22.23-.12.12.24c4.15,8.46,7.82,16,10.43,21.46,1.28,2.66,2.31,4.83,3.06,6.39l.8,1.71A4.47,4.47,0,0,1,61.88,333.18Z" style="fill: rgb(38, 50, 56); transform-origin: 53.1474px 318.675px;" id="el6lwn0mszw0f" class="animable"></path><path d="M43.48,298.93a2.54,2.54,0,0,1,.9-.35,3.58,3.58,0,0,1,2.71.49,3.69,3.69,0,0,1,1.34,1.51l1.07,2.12,2.58,5.17c1.92,3.85,4.18,8.42,6.7,13.48l3.93,8c.34.69.69,1.39,1,2.09a13.56,13.56,0,0,1,1,2.21A3.84,3.84,0,0,1,58,336.94a14.46,14.46,0,0,1-1.16-2.13l-1-2.1c-1.36-2.76-2.67-5.43-3.91-8-2.48-5.08-4.71-9.66-6.59-13.53-.93-1.92-1.78-3.66-2.52-5.2l-1-2.14a3.74,3.74,0,0,1-.38-2,3.57,3.57,0,0,1,1.26-2.44,2.56,2.56,0,0,1,.83-.5s-.29.16-.76.58a3.52,3.52,0,0,0-1.13,2.37c-.16,1.2.75,2.45,1.47,4s1.63,3.26,2.59,5.17l6.69,13.48c1.25,2.54,2.57,5.21,3.94,8l1,2.09a13.92,13.92,0,0,0,1.09,2,3.32,3.32,0,0,0,5.82-2.86,14.38,14.38,0,0,0-.94-2.11c-.34-.7-.69-1.4-1-2.09l-3.9-8c-2.48-5.09-4.71-9.67-6.6-13.53l-2.51-5.21c-.78-1.51-1.21-3-2.26-3.59a3.57,3.57,0,0,0-2.58-.56C43.79,298.79,43.49,299,43.48,298.93Z" style="fill: rgb(38, 50, 56); transform-origin: 53.1154px 318.419px;" id="elnk4hlfq9jvc" class="animable"></path><path d="M102.33,298.48a3.59,3.59,0,0,0-1.64,4.8l15.93,32.38a3.58,3.58,0,1,0,6.43-3.17l-15.92-32.37A3.59,3.59,0,0,0,102.33,298.48Zm18.39,34.25L118.23,334l-14.78-30,2.5-1.23Z" style="fill: none; transform-origin: 111.873px 317.889px;" id="el3bxo1bmzpjk" class="animable"></path><path d="M120.72,332.73s-.13-.22-.34-.62-.52-1-.9-1.73c-.78-1.56-1.87-3.72-3.22-6.38-2.71-5.39-6.43-12.83-10.54-21.19l.34.11-2.49,1.23c.23-.69.07-.18.12-.34h0v.06l0,.08.08.16.16.32.31.63c.2.42.41.83.61,1.25l1.21,2.47,2.33,4.74c1.5,3.07,2.9,6,4.17,8.57,2.49,5.16,4.46,9.27,5.69,11.81l-.14,0L120,333l.68-.29a3.43,3.43,0,0,1-.59.34l-1.86,1-.09,0,0-.09c-1.27-2.52-3.32-6.59-5.89-11.71L108,313.75,105.67,309l-1.21-2.46-.62-1.25-.31-.63-.16-.32-.07-.16,0-.08,0,0v0h0c.06-.16-.12.34.12-.36l2.49-1.22.24-.12.11.24c4.16,8.46,7.83,16,10.44,21.46l3,6.39.81,1.72A4.19,4.19,0,0,1,120.72,332.73Z" style="fill: rgb(38, 50, 56); transform-origin: 112.005px 318.225px;" id="elq76uw9w9v4j" class="animable"></path><path d="M102.33,298.48a2.67,2.67,0,0,1,.9-.35,3.55,3.55,0,0,1,2.7.49,3.61,3.61,0,0,1,1.35,1.52l1.06,2.11,2.59,5.18c1.91,3.85,4.18,8.41,6.69,13.48l3.94,8c.34.69.68,1.39,1,2.09a14.57,14.57,0,0,1,1,2.22,3.87,3.87,0,0,1-.24,2.51,3.85,3.85,0,0,1-6.49.8,14.37,14.37,0,0,1-1.15-2.13c-.35-.7-.69-1.4-1-2.09-1.35-2.77-2.66-5.44-3.91-8-2.47-5.08-4.71-9.66-6.59-13.53l-2.52-5.2c-.36-.77-.71-1.48-1-2.14a3.65,3.65,0,0,1-.38-2A3.53,3.53,0,0,1,101.5,299a2.56,2.56,0,0,1,.83-.5,9.44,9.44,0,0,0-.76.58,3.53,3.53,0,0,0-1.13,2.38c-.16,1.2.75,2.45,1.47,4l2.58,5.17,6.69,13.48,3.94,8c.34.69.69,1.39,1,2.09a15.12,15.12,0,0,0,1.1,2,3.33,3.33,0,0,0,5.82-2.87,14.87,14.87,0,0,0-.94-2.11c-.35-.7-.69-1.4-1-2.09-1.35-2.77-2.66-5.44-3.91-8l-6.59-13.53c-.93-1.92-1.77-3.67-2.52-5.21s-1.21-3-2.26-3.59a3.53,3.53,0,0,0-2.57-.56C102.64,298.34,102.34,298.51,102.33,298.48Z" style="fill: rgb(38, 50, 56); transform-origin: 111.966px 318.004px;" id="elx3hphqkf6xh" class="animable"></path><path d="M72.85,298.48a3.59,3.59,0,0,0-1.64,4.8l15.93,32.38a3.59,3.59,0,1,0,6.44-3.17L77.65,300.12A3.59,3.59,0,0,0,72.85,298.48Zm18.39,34.25L88.75,334,74,303.92l2.5-1.23Z" style="fill: none; transform-origin: 82.4162px 317.928px;" id="elybimbi6tlxj" class="animable"></path><path d="M91.24,332.73s-.13-.22-.34-.62L90,330.38,86.78,324c-2.71-5.39-6.43-12.83-10.54-21.19l.34.11-2.49,1.23c.23-.69.07-.18.12-.34h0v0l0,0,0,.08.08.16.16.32.31.63c.2.42.41.83.61,1.25.41.83.82,1.65,1.21,2.47L79,313.53c1.5,3.07,2.9,6,4.17,8.57,2.49,5.16,4.46,9.27,5.69,11.81l-.14,0,1.86-.85.68-.29a3.43,3.43,0,0,1-.59.34l-1.86,1-.09,0,0-.09c-1.27-2.52-3.32-6.59-5.89-11.71l-4.24-8.54c-.75-1.53-1.54-3.12-2.34-4.74L75,306.55l-.62-1.25-.31-.63-.15-.32-.08-.16,0-.08,0,0v0h0c.06-.16-.12.34.12-.36l2.49-1.22.24-.12.11.24c4.16,8.46,7.83,16,10.44,21.46l3,6.39.81,1.72A4.19,4.19,0,0,1,91.24,332.73Z" style="fill: rgb(38, 50, 56); transform-origin: 82.5454px 318.26px;" id="el6904j80q98e" class="animable"></path><path d="M72.85,298.48a2.67,2.67,0,0,1,.9-.35,3.55,3.55,0,0,1,2.7.49,3.61,3.61,0,0,1,1.35,1.52l1.06,2.11,2.59,5.18c1.91,3.85,4.18,8.41,6.69,13.48l3.94,8c.34.69.68,1.39,1,2.09a14.57,14.57,0,0,1,1,2.22,3.83,3.83,0,0,1-2,4.35,3.85,3.85,0,0,1-4.7-1,14.37,14.37,0,0,1-1.15-2.13c-.34-.7-.69-1.4-1-2.09-1.35-2.77-2.66-5.44-3.91-8-2.47-5.08-4.71-9.66-6.59-13.53l-2.51-5.2c-.37-.77-.72-1.48-1-2.14a3.65,3.65,0,0,1-.38-2A3.53,3.53,0,0,1,72,299a2.56,2.56,0,0,1,.83-.5,9.44,9.44,0,0,0-.76.58A3.53,3.53,0,0,0,71,301.44c-.16,1.2.75,2.45,1.47,4L75,310.59c1.91,3.85,4.18,8.42,6.7,13.48l3.93,8c.34.69.69,1.39,1,2.09a15.12,15.12,0,0,0,1.1,2,3.33,3.33,0,0,0,5.82-2.87,14.87,14.87,0,0,0-.94-2.11c-.35-.7-.69-1.4-1-2.09-1.35-2.77-2.66-5.44-3.91-8-2.47-5.09-4.71-9.67-6.59-13.53-.93-1.92-1.77-3.67-2.52-5.21s-1.21-3-2.26-3.59a3.53,3.53,0,0,0-2.57-.56C73.16,298.34,72.86,298.51,72.85,298.48Z" style="fill: rgb(38, 50, 56); transform-origin: 82.5086px 318.012px;" id="elkzfq3qivnyq" class="animable"></path></g><g id="freepik--Desk--inject-100" class="animable" style="transform-origin: 250px 469.17px;"><path d="M473.44,469.17c0,.14-100.05.26-223.43.26s-223.45-.12-223.45-.26,100-.26,223.45-.26S473.44,469,473.44,469.17Z" style="fill: rgb(38, 50, 56); transform-origin: 250px 469.17px;" id="elbkbpjds071m" class="animable"></path></g><defs>     <filter id="active" height="200%">         <feMorphology in="SourceAlpha" result="DILATED" operator="dilate" radius="2"></feMorphology>                <feFlood flood-color="#32DFEC" flood-opacity="1" result="PINK"></feFlood>        <feComposite in="PINK" in2="DILATED" operator="in" result="OUTLINE"></feComposite>        <feMerge>            <feMergeNode in="OUTLINE"></feMergeNode>            <feMergeNode in="SourceGraphic"></feMergeNode>        </feMerge>    </filter>    <filter id="hover" height="200%">        <feMorphology in="SourceAlpha" result="DILATED" operator="dilate" radius="2"></feMorphology>                <feFlood flood-color="#ff0000" flood-opacity="0.5" result="PINK"></feFlood>        <feComposite in="PINK" in2="DILATED" operator="in" result="OUTLINE"></feComposite>        <feMerge>            <feMergeNode in="OUTLINE"></feMergeNode>            <feMergeNode in="SourceGraphic"></feMergeNode>        </feMerge>            <feColorMatrix type="matrix" values="0   0   0   0   0                0   1   0   0   0                0   0   0   0   0                0   0   0   1   0 "></feColorMatrix>    </filter></defs></svg>